<svg width="91" height="30" viewBox="0 0 91 30" fill="none" xmlns="http://www.w3.org/2000/svg">
<rect x="0.604324" y="0.258621" width="90.0001" height="29.4828" rx="4.9138" fill="white" stroke="#333333" stroke-width="0.517242"/>
<path d="M35.1445 16.7463H32.1712L31.4568 18.855H30.1969L33.0144 11.0522H34.3233L37.1401 18.855H35.8589L35.1445 16.7463ZM32.4784 15.7723H34.836L33.6735 12.3504H33.6415L32.4784 15.7723ZM43.2231 16.0111C43.2231 17.7786 42.2774 18.914 40.8492 18.914C40.4876 18.9329 40.128 18.8496 39.8116 18.6737C39.4951 18.4978 39.2346 18.2364 39.0597 17.9194H39.0327V20.7368H37.8639V13.166H38.995V14.1123H39.0157C39.1986 13.7966 39.4636 13.5364 39.7826 13.3594C40.1016 13.1824 40.4626 13.0951 40.8272 13.1069C42.2711 13.1069 43.2231 14.248 43.2231 16.0111ZM42.0229 16.0111C42.0229 14.8594 41.4279 14.1022 40.5199 14.1022C39.6277 14.1022 39.0276 14.8751 39.0276 16.0111C39.0276 17.1572 39.6277 17.925 40.5199 17.925C41.4279 17.925 42.0229 17.1729 42.0229 16.0111ZM49.4851 16.0111C49.4851 17.7786 48.5388 18.914 47.1106 18.914C46.749 18.9329 46.3894 18.8496 46.073 18.6737C45.7565 18.4978 45.496 18.2364 45.3211 17.9194H45.2941V20.7368H44.126V13.166H45.2564V14.1123H45.2777C45.4606 13.7966 45.7257 13.5364 46.0446 13.3594C46.3636 13.1824 46.7246 13.0951 47.0892 13.1069C48.5332 13.1069 49.4851 14.248 49.4851 16.0111ZM48.285 16.0111C48.285 14.8594 47.6893 14.1022 46.7813 14.1022C45.8891 14.1022 45.289 14.8751 45.289 16.0111C45.289 17.1572 45.8891 17.925 46.7813 17.925C47.6893 17.925 48.285 17.1729 48.285 16.0111ZM53.6227 16.6809C53.7094 17.455 54.4609 17.9627 55.4889 17.9627C56.4729 17.9627 57.181 17.455 57.181 16.7569C57.181 16.1512 56.7537 15.7893 55.7421 15.5405L54.7311 15.2967C53.2985 14.9511 52.6331 14.2807 52.6331 13.193C52.6331 11.8471 53.8062 10.9222 55.4725 10.9222C57.1213 10.9222 58.2517 11.8471 58.2894 13.193H57.1106C57.0402 12.4145 56.3968 11.9445 55.4556 11.9445C54.5149 11.9445 53.8715 12.4201 53.8715 13.1119C53.8715 13.6636 54.2825 13.9885 55.2884 14.2367L56.148 14.4478C57.749 14.8267 58.4138 15.4695 58.4138 16.6112C58.4138 18.0708 57.2514 18.985 55.4022 18.985C53.6717 18.985 52.503 18.0928 52.4276 16.6809H53.6227ZM60.9341 11.8201V13.166H62.0161V14.0909H60.9341V17.2269C60.9341 17.7145 61.1508 17.9414 61.6265 17.9414C61.7547 17.9388 61.8829 17.9301 62.0104 17.9143V18.8336C61.7968 18.8732 61.5794 18.8914 61.362 18.8876C60.2102 18.8876 59.761 18.4547 59.761 17.3513V14.0909H58.9341V13.166H59.761V11.8201H60.9341ZM62.6425 16.0111C62.6425 14.221 63.6969 13.0962 65.3406 13.0962C66.99 13.0962 68.0393 14.221 68.0393 16.0111C68.0393 17.8056 66.9957 18.9253 65.3406 18.9253C63.6862 18.9253 62.6425 17.8056 62.6425 16.0111ZM66.8493 16.0111C66.8493 14.7833 66.2869 14.0582 65.3406 14.0582C64.3943 14.0582 63.8326 14.7884 63.8326 16.0111C63.8326 17.2439 64.3943 17.9627 65.3406 17.9627C66.2869 17.9627 66.8493 17.2439 66.8493 16.0111ZM69.0019 13.166H70.116V14.1343H70.143C70.2185 13.832 70.3956 13.565 70.6447 13.3779C70.8938 13.1909 71.1996 13.0952 71.5109 13.1069C71.6454 13.1063 71.7798 13.1207 71.9112 13.1503V14.2423C71.7413 14.1905 71.564 14.1667 71.3865 14.172C71.2168 14.1651 71.0477 14.195 70.8907 14.2596C70.7337 14.3242 70.5925 14.4221 70.4769 14.5464C70.3613 14.6708 70.2739 14.8187 70.2209 14.9799C70.1678 15.1412 70.1502 15.3121 70.1694 15.4808V18.855H69.0019V13.166ZM77.2948 17.1842C77.1377 18.2166 76.1323 18.9253 74.8455 18.9253C73.1905 18.9253 72.1631 17.8169 72.1631 16.0381C72.1631 14.2536 73.1961 13.0962 74.7959 13.0962C76.3705 13.0962 77.3595 14.177 77.3595 15.9024V16.3027H73.3419V16.373C73.3234 16.5824 73.3496 16.7933 73.4189 16.9917C73.4882 17.1902 73.5989 17.3716 73.7436 17.524C73.8884 17.6764 74.0639 17.7962 74.2586 17.8755C74.4532 17.9548 74.6625 17.9919 74.8725 17.9841C75.1484 18.0099 75.4251 17.946 75.6617 17.8019C75.8983 17.6578 76.0821 17.4411 76.1858 17.1842H77.2948ZM73.3475 15.4864H76.1914C76.2019 15.2982 76.1734 15.1098 76.1077 14.9332C76.042 14.7565 75.9404 14.5953 75.8094 14.4597C75.6785 14.3241 75.5209 14.2171 75.3466 14.1453C75.1722 14.0735 74.985 14.0385 74.7965 14.0425C74.6063 14.0414 74.4178 14.0779 74.2418 14.15C74.0658 14.2221 73.9058 14.3283 73.7711 14.4625C73.6364 14.5968 73.5296 14.7564 73.4569 14.9321C73.3842 15.1079 73.347 15.2963 73.3475 15.4864ZM24.1278 14.5174C24.1347 13.9931 24.274 13.479 24.5328 13.023C24.7916 12.567 25.1615 12.1838 25.6082 11.9091C25.3244 11.5038 24.9501 11.1703 24.5149 10.9349C24.0797 10.6995 23.5956 10.5688 23.1011 10.5532C22.0455 10.4426 21.0226 11.1847 20.4847 11.1847C19.9368 11.1847 19.1086 10.5639 18.2177 10.5827C17.6411 10.6013 17.0791 10.7688 16.5866 11.0691C16.094 11.3694 15.6877 11.7922 15.4071 12.2962C14.1919 14.4005 15.0986 17.4926 16.2623 19.1935C16.8447 20.026 17.5252 20.956 18.4162 20.9233C19.2877 20.8869 19.6132 20.3672 20.6657 20.3672C21.7074 20.3672 22.0128 20.9233 22.9214 20.9026C23.857 20.8869 24.4458 20.0656 25.0075 19.2249C25.4263 18.6317 25.7486 17.976 25.9626 17.2821C25.4191 17.0523 24.9552 16.6676 24.629 16.176C24.3027 15.6843 24.1284 15.1075 24.1278 14.5174ZM22.4112 9.43412C22.9211 8.82214 23.1725 8.03549 23.1118 7.24121C22.3326 7.32301 21.6129 7.69543 21.0961 8.28425C20.8435 8.5717 20.65 8.9061 20.5266 9.26835C20.4033 9.6306 20.3525 10.0136 20.3773 10.3955C20.7669 10.3995 21.1524 10.3151 21.5047 10.1486C21.857 9.98208 22.167 9.73779 22.4112 9.43412Z" fill="#333333"/>
</svg>
