<svg width="28" height="28" viewBox="0 0 28 28" fill="none" xmlns="http://www.w3.org/2000/svg">
<g clip-path="url(#clip0_232_1870)">
<path fill-rule="evenodd" clip-rule="evenodd" d="M0 13.7122C0 20.4375 4.88447 26.0299 11.2727 27.1639V17.3938H7.89091V13.6366H11.2727V10.6302C11.2727 7.24839 13.4517 5.37036 16.5337 5.37036C17.5099 5.37036 18.5628 5.52028 19.539 5.67021V9.12756H17.8109C16.1572 9.12756 15.7818 9.95385 15.7818 11.0067V13.6366H19.3891L18.7883 17.3938H15.7818V27.1639C22.1701 26.0299 27.0545 20.4386 27.0545 13.7122C27.0545 6.23047 20.9673 0.109375 13.5273 0.109375C6.08727 0.109375 0 6.23047 0 13.7122Z" fill="white"/>
</g>
<defs>
<clipPath id="clip0_232_1870">
<rect width="27.0545" height="27.0545" fill="white" transform="translate(0 0.109375)"/>
</clipPath>
</defs>
</svg>
