<svg width="28" height="28" viewBox="0 0 28 28" fill="none" xmlns="http://www.w3.org/2000/svg">
<g clip-path="url(#clip0_232_1878)">
<path d="M13.851 9.12564C11.3671 9.12564 9.34002 11.1527 9.34002 13.6366C9.34002 16.1206 11.3671 18.1477 13.851 18.1477C16.335 18.1477 18.362 16.1206 18.362 13.6366C18.362 11.1527 16.335 9.12564 13.851 9.12564ZM27.3807 13.6366C27.3807 11.7686 27.3976 9.91752 27.2927 8.05288C27.1878 5.88705 26.6937 3.96488 25.11 2.38112C23.5228 0.79397 21.604 0.303275 19.4382 0.198368C17.5702 0.093461 15.7191 0.110382 13.8544 0.110382C11.9864 0.110382 10.1353 0.093461 8.27065 0.198368C6.10482 0.303275 4.18265 0.797355 2.59889 2.38112C1.01174 3.96826 0.521049 5.88705 0.416142 8.05288C0.311234 9.9209 0.328155 11.772 0.328155 13.6366C0.328155 15.5013 0.311234 17.3558 0.416142 19.2204C0.521049 21.3862 1.01513 23.3084 2.59889 24.8922C4.18603 26.4793 6.10482 26.97 8.27065 27.0749C10.1387 27.1798 11.9898 27.1629 13.8544 27.1629C15.7224 27.1629 17.5736 27.1798 19.4382 27.0749C21.604 26.97 23.5262 26.4759 25.11 24.8922C26.6971 23.305 27.1878 21.3862 27.2927 19.2204C27.401 17.3558 27.3807 15.5047 27.3807 13.6366ZM13.851 20.5774C10.0101 20.5774 6.91024 17.4776 6.91024 13.6366C6.91024 9.79569 10.0101 6.69585 13.851 6.69585C17.692 6.69585 20.7918 9.79569 20.7918 13.6366C20.7918 17.4776 17.692 20.5774 13.851 20.5774ZM21.0761 8.03257C20.1793 8.03257 19.4551 7.30837 19.4551 6.41158C19.4551 5.5148 20.1793 4.7906 21.0761 4.7906C21.9729 4.7906 22.6971 5.5148 22.6971 6.41158C22.6974 6.62453 22.6556 6.83544 22.5742 7.03223C22.4929 7.22901 22.3735 7.40781 22.2229 7.55839C22.0723 7.70897 21.8935 7.82836 21.6967 7.90973C21.5 7.99109 21.289 8.03284 21.0761 8.03257Z" fill="white"/>
</g>
<defs>
<clipPath id="clip0_232_1878">
<rect width="27.0545" height="27.0545" fill="white" transform="translate(0.327148 0.109375)"/>
</clipPath>
</defs>
</svg>
