<svg width="28" height="28" viewBox="0 0 28 28" fill="none" xmlns="http://www.w3.org/2000/svg">
<g clip-path="url(#clip0_232_1872)">
<path d="M14.1093 0.109375C6.6383 0.109375 0.582031 6.16565 0.582031 13.6366C0.582031 21.1076 6.6383 27.1639 14.1093 27.1639C21.5803 27.1639 27.6366 21.1076 27.6366 13.6366C27.6366 6.16565 21.5803 0.109375 14.1093 0.109375ZM10.7979 19.2434H8.05867V10.4281H10.7979V19.2434ZM9.41139 9.34596C8.54621 9.34596 7.9868 8.73301 7.9868 7.97492C7.9868 7.20133 8.56312 6.60669 9.44662 6.60669C10.3301 6.60669 10.8712 7.20133 10.8881 7.97492C10.8881 8.73301 10.3301 9.34596 9.41139 9.34596ZM20.8025 19.2434H18.0632V14.3581C18.0632 13.221 17.6658 12.4488 16.6753 12.4488C15.9186 12.4488 15.4691 12.9716 15.2704 13.4746C15.1971 13.6536 15.1788 13.9072 15.1788 14.1594V19.242H12.4381V13.2393C12.4381 12.1388 12.4029 11.2186 12.3663 10.4267H14.7462L14.8716 11.6512H14.9266C15.2873 11.0763 16.1708 10.2281 17.6489 10.2281C19.4512 10.2281 20.8025 11.4356 20.8025 14.0312V19.2434Z" fill="white"/>
</g>
<defs>
<clipPath id="clip0_232_1872">
<rect width="27.0545" height="27.0545" fill="white" transform="translate(0.582031 0.109375)"/>
</clipPath>
</defs>
</svg>
