<svg width="91" height="30" viewBox="0 0 91 30" fill="none" xmlns="http://www.w3.org/2000/svg">
<rect x="0.258621" y="0.258621" width="90.0001" height="29.4828" rx="4.9138" fill="white" stroke="#333333" stroke-width="0.517242"/>
<path d="M45.008 12.8159C44.4803 12.8184 43.9653 12.9771 43.5278 13.272C43.0903 13.567 42.75 13.9849 42.5498 14.4731C42.3496 14.9612 42.2985 15.4978 42.4029 16.015C42.5074 16.5321 42.7627 17.0068 43.1367 17.379C43.5106 17.7512 43.9865 18.0043 44.5042 18.1063C45.0218 18.2084 45.5581 18.1547 46.0454 17.9523C46.5326 17.7498 46.9489 17.4075 47.2418 16.9686C47.5347 16.5298 47.691 16.014 47.691 15.4863C47.6961 15.1332 47.6301 14.7826 47.4969 14.4554C47.3638 14.1283 47.1661 13.8313 46.9158 13.5821C46.6654 13.333 46.3675 13.1367 46.0398 13.0051C45.712 12.8734 45.3611 12.8091 45.008 12.8159V12.8159ZM45.008 17.1074C44.6835 17.1301 44.3597 17.0547 44.0786 16.8909C43.7976 16.7271 43.5723 16.4826 43.4321 16.1891C43.2919 15.8956 43.2432 15.5667 43.2924 15.2451C43.3416 14.9236 43.4864 14.6243 43.7079 14.3861C43.9295 14.148 44.2175 13.9819 44.5347 13.9097C44.8518 13.8374 45.1834 13.8622 45.4863 13.9809C45.7891 14.0995 46.0493 14.3066 46.2329 14.575C46.4166 14.8435 46.5152 15.161 46.516 15.4863C46.5261 15.6924 46.4949 15.8985 46.4241 16.0923C46.3533 16.2861 46.2444 16.4638 46.1039 16.6149C45.9633 16.766 45.794 16.8874 45.6057 16.972C45.4175 17.0566 45.2143 17.1027 45.008 17.1074V17.1074ZM39.1581 12.8159C38.6302 12.8171 38.1145 12.9748 37.6762 13.269C37.2379 13.5632 36.8966 13.9807 36.6954 14.4687C36.4943 14.9568 36.4423 15.4935 36.546 16.0111C36.6498 16.5287 36.9046 17.004 37.2783 17.3768C37.6521 17.7497 38.1279 18.0034 38.6457 18.1059C39.1636 18.2084 39.7002 18.1552 40.1878 17.9529C40.6754 17.7506 41.0921 17.4083 41.3852 16.9693C41.6784 16.5303 41.8349 16.0142 41.8349 15.4863C41.84 15.1332 41.774 14.7826 41.6408 14.4554C41.5076 14.1283 41.31 13.8313 41.0596 13.5821C40.8093 13.333 40.5114 13.1367 40.1836 13.0051C39.8559 12.8734 39.505 12.8091 39.1518 12.8159H39.1581V12.8159ZM39.1581 17.1074C38.8335 17.1314 38.5091 17.0571 38.2273 16.8942C37.9455 16.7312 37.7193 16.4872 37.5781 16.1939C37.4369 15.9006 37.3872 15.5716 37.4357 15.2496C37.4841 14.9277 37.6283 14.6279 37.8495 14.389C38.0707 14.1502 38.3587 13.9836 38.676 13.9107C38.9933 13.8379 39.3251 13.8622 39.6283 13.9806C39.9316 14.099 40.1922 14.306 40.3761 14.5745C40.5601 14.8431 40.659 15.1608 40.6599 15.4863C40.67 15.6924 40.6387 15.8985 40.568 16.0923C40.4972 16.2861 40.3883 16.4638 40.2478 16.6149C40.1072 16.766 39.9378 16.8874 39.7496 16.972C39.5614 17.0566 39.3581 17.1027 39.1518 17.1074H39.1581ZM32.1898 13.639V14.77H34.9043C34.8617 15.3027 34.6403 15.8054 34.2759 16.1963C34.0044 16.473 33.6779 16.6897 33.3175 16.8325C32.9572 16.9754 32.5709 17.0412 32.1836 17.0258C31.7875 17.0258 31.3953 16.9477 31.0294 16.7962C30.6635 16.6446 30.331 16.4224 30.0509 16.1424C29.7708 15.8623 29.5487 15.5298 29.3971 15.1639C29.2455 14.798 29.1675 14.4058 29.1675 14.0097C29.1675 13.6137 29.2455 13.2215 29.3971 12.8555C29.5487 12.4896 29.7708 12.1571 30.0509 11.8771C30.331 11.597 30.6635 11.3748 31.0294 11.2233C31.3953 11.0717 31.7875 10.9937 32.1836 10.9937C32.9487 10.9812 33.6877 11.2727 34.2382 11.8043L35.0362 11.0063C34.6645 10.6299 34.2211 10.332 33.7322 10.1301C33.2432 9.92832 32.7188 9.82668 32.1898 9.83127C31.6312 9.80953 31.074 9.90078 30.5515 10.0995C30.029 10.2983 29.5521 10.6005 29.1492 10.988C28.7463 11.3756 28.4257 11.8404 28.2068 12.3548C27.9879 12.8692 27.875 13.4224 27.875 13.9814C27.875 14.5405 27.9879 15.0937 28.2068 15.6081C28.4257 16.1225 28.7463 16.5873 29.1492 16.9749C29.5521 17.3624 30.029 17.6646 30.5515 17.8634C31.074 18.0621 31.6312 18.1534 32.1898 18.1316C32.7277 18.1559 33.2645 18.0648 33.7641 17.8643C34.2638 17.6637 34.7147 17.3586 35.0865 16.9692C35.7448 16.2459 36.0963 15.2952 36.0667 14.3176C36.0687 14.0795 36.0477 13.8417 36.0039 13.6076L32.1898 13.639V13.639ZM60.6599 14.5187C60.496 14.0366 60.1896 13.6156 59.7812 13.3115C59.3728 13.0075 58.8816 12.8346 58.3728 12.8159C58.0291 12.8152 57.6889 12.885 57.3732 13.0211C57.0576 13.1571 56.7732 13.3564 56.5376 13.6067C56.302 13.857 56.1203 14.1529 56.0037 14.4762C55.887 14.7995 55.8379 15.1433 55.8594 15.4863C55.8518 15.8375 55.915 16.1866 56.0453 16.5128C56.1756 16.839 56.3703 17.1356 56.6178 17.3849C56.8653 17.6342 57.1605 17.831 57.4858 17.9636C57.8111 18.0962 58.1598 18.1619 58.511 18.1568C58.9505 18.1591 59.3838 18.0525 59.7719 17.8463C60.1601 17.6402 60.4911 17.341 60.7353 16.9755L59.8242 16.3471C59.6882 16.5738 59.4957 16.7613 59.2655 16.8913C59.0353 17.0213 58.7753 17.0893 58.511 17.0886C58.2388 17.099 57.9698 17.0272 57.739 16.8826C57.5081 16.7381 57.3261 16.5274 57.2166 16.278L60.7919 14.8014L60.6599 14.5187ZM57.0155 15.4109C57.0028 15.2166 57.029 15.0216 57.0925 14.8375C57.1561 14.6534 57.2557 14.4838 57.3856 14.3387C57.5155 14.1936 57.6731 14.0759 57.849 13.9924C58.025 13.9089 58.2159 13.8614 58.4105 13.8526C58.6131 13.8393 58.8153 13.8858 58.9918 13.9863C59.1683 14.0868 59.3113 14.237 59.4032 14.4181L57.0155 15.4109ZM54.1126 17.9997H55.2876V10.1454H54.1126V17.9997ZM52.1899 13.4128H52.1459C51.9688 13.2148 51.7519 13.0565 51.5093 12.9482C51.2668 12.8399 51.0041 12.7841 50.7384 12.7845C50.0518 12.8178 49.4042 13.114 48.93 13.6117C48.4559 14.1095 48.1913 14.7706 48.1913 15.458C48.1913 16.1455 48.4559 16.8066 48.93 17.3044C49.4042 17.8021 50.0518 18.0983 50.7384 18.1316C51.0047 18.1361 51.2687 18.0822 51.5119 17.9736C51.755 17.8651 51.9715 17.7045 52.1459 17.5033H52.1836V17.8866C52.1836 18.9108 51.637 19.4574 50.7573 19.4574C50.4643 19.4506 50.18 19.3567 49.9405 19.1877C49.7011 19.0188 49.5173 18.7824 49.4126 18.5086L48.3884 18.9359C48.5812 19.4049 48.9097 19.8056 49.3318 20.0866C49.7538 20.3676 50.2502 20.5161 50.7573 20.513C52.1333 20.513 53.2706 19.7025 53.2706 17.7295V12.973H52.1899V13.4128V13.4128ZM50.8452 17.1074C50.4399 17.0717 50.0627 16.8855 49.7879 16.5854C49.5131 16.2853 49.3607 15.8932 49.3607 15.4863C49.3607 15.0794 49.5131 14.6873 49.7879 14.3873C50.0627 14.0872 50.4399 13.9009 50.8452 13.8652C51.0462 13.8755 51.2431 13.9259 51.4242 14.0135C51.6054 14.1011 51.7672 14.224 51.9001 14.3751C52.0331 14.5262 52.1344 14.7023 52.1982 14.8932C52.262 15.084 52.2869 15.2857 52.2716 15.4863C52.2887 15.6878 52.2648 15.8907 52.2013 16.0827C52.1378 16.2747 52.036 16.4518 51.9021 16.6034C51.7682 16.7549 51.6049 16.8777 51.4222 16.9644C51.2394 17.051 51.041 17.0997 50.839 17.1074H50.8452V17.1074ZM66.1642 10.1454H63.3555V17.9997H64.5305V15.0214H66.1704C66.5053 15.0454 66.8416 15.0002 67.1582 14.8886C67.4748 14.777 67.7651 14.6013 68.0109 14.3726C68.2566 14.1438 68.4526 13.8669 68.5866 13.5591C68.7207 13.2513 68.7898 12.9191 68.7898 12.5834C68.7898 12.2477 68.7207 11.9155 68.5866 11.6077C68.4526 11.2999 68.2566 11.0229 68.0109 10.7942C67.7651 10.5655 67.4748 10.3898 67.1582 10.2782C66.8416 10.1666 66.5053 10.1214 66.1704 10.1454H66.1642ZM66.1642 13.9155H64.5242V11.2387H66.1893C66.5468 11.2387 66.8896 11.3807 67.1423 11.6335C67.3951 11.8863 67.5371 12.2291 67.5371 12.5865C67.5371 12.944 67.3951 13.2868 67.1423 13.5396C66.8896 13.7923 66.5468 13.9343 66.1893 13.9343L66.1642 13.9155V13.9155ZM73.4089 12.7845C72.9812 12.7589 72.5552 12.8589 72.1835 13.0721C71.8118 13.2853 71.5105 13.6024 71.3165 13.9846L72.3596 14.4181C72.4624 14.2286 72.6182 14.0731 72.8078 13.9704C72.9974 13.8678 73.2128 13.8225 73.4278 13.8401C73.5769 13.8227 73.7281 13.8351 73.8724 13.8767C74.0166 13.9183 74.1512 13.9883 74.2682 14.0824C74.3852 14.1766 74.4822 14.2931 74.5537 14.4252C74.6252 14.5573 74.6696 14.7023 74.6844 14.8517V14.9334C74.3071 14.7336 73.8862 14.63 73.4592 14.6318C72.3345 14.6318 71.1972 15.2601 71.1972 16.3974C71.2083 16.6399 71.2679 16.8777 71.3725 17.0968C71.4771 17.3159 71.6245 17.5117 71.8061 17.6728C71.9877 17.8339 72.1998 17.957 72.4297 18.0347C72.6597 18.1124 72.9029 18.1432 73.145 18.1253C73.4409 18.1466 73.7371 18.0878 74.0024 17.9551C74.2678 17.8225 74.4925 17.6208 74.653 17.3713H74.6907V17.9997H75.8217V14.9774C75.8217 13.6013 74.7787 12.8033 73.4403 12.8033L73.4089 12.7845V12.7845ZM73.2644 17.0886C72.8811 17.0886 72.347 16.8938 72.347 16.4225C72.347 15.7942 73.0131 15.5869 73.6037 15.5869C73.977 15.5776 74.3459 15.6688 74.6719 15.8508C74.6326 16.1909 74.4717 16.5055 74.2188 16.7364C73.966 16.9673 73.6382 17.0991 73.2958 17.1074L73.2644 17.0886V17.0886ZM79.9436 12.973L78.599 16.3786H78.5613L77.1664 12.973H75.9097L78.0021 17.7358L76.8082 20.3811H78.0335L81.2506 12.973H79.9436ZM69.3813 17.9997H70.5563V10.1454H69.3813V17.9997Z" fill="#333333"/>
<path d="M9.60769 6.97855C9.4029 7.2243 9.29953 7.5389 9.31866 7.85823V21.7571C9.29953 22.0764 9.4029 22.391 9.60769 22.6368L9.65168 22.6808L17.4368 14.9019V14.7197L9.65168 6.93457L9.60769 6.97855Z" fill="url(#paint0_linear_2183_43360)"/>
<path d="M20.0117 17.4977L17.4355 14.9027V14.7205L20.0117 12.1191L20.0683 12.1506L23.1534 13.9036C24.0331 14.4 24.0331 15.2169 23.1534 15.7195L20.0809 17.4663L20.0117 17.4977Z" fill="url(#paint1_linear_2183_43360)"/>
<path d="M20.0881 17.4602L17.4365 14.8086L9.60742 22.6377C9.78673 22.7953 10.0155 22.8854 10.2541 22.8922C10.4927 22.8991 10.7263 22.8224 10.9144 22.6754L20.0944 17.4602" fill="url(#paint2_linear_2183_43360)"/>
<path d="M20.0886 12.1571L10.9085 6.94187C10.7204 6.79485 10.4869 6.71815 10.2482 6.72504C10.0096 6.73192 9.78087 6.82195 9.60156 6.97957L17.437 14.8087L20.0886 12.1571V12.1571Z" fill="url(#paint3_linear_2183_43360)"/>
<path opacity="0.2" d="M20.0127 17.4053L10.9081 22.5891C10.7267 22.7247 10.5063 22.798 10.2797 22.798C10.0532 22.798 9.83281 22.7247 9.65141 22.5891L9.60742 22.6331L9.65141 22.677C9.8324 22.8136 10.053 22.8875 10.2797 22.8875C10.5065 22.8875 10.7271 22.8136 10.9081 22.677L20.0881 17.4618L20.0127 17.4053V17.4053Z" fill="#333333"/>
<path opacity="0.12" d="M9.60769 22.5497C9.4029 22.304 9.29953 21.9894 9.31866 21.6701V21.7643C9.29953 22.0836 9.4029 22.3982 9.60769 22.644L9.65168 22.6L9.60769 22.5497ZM23.1547 15.6254L20.013 17.4036L20.0695 17.4602L23.1547 15.7134C23.3298 15.6312 23.48 15.5042 23.5903 15.3454C23.7007 15.1865 23.7671 15.0013 23.783 14.8086C23.7477 14.9837 23.6727 15.1484 23.5638 15.29C23.4548 15.4316 23.3149 15.5464 23.1547 15.6254V15.6254Z" fill="#333333"/>
<path opacity="0.25" d="M10.9085 7.03022L23.1548 13.9922C23.315 14.0713 23.455 14.186 23.5639 14.3276C23.6728 14.4692 23.7478 14.6339 23.7832 14.8091C23.7673 14.6163 23.7008 14.4312 23.5905 14.2723C23.4801 14.1134 23.3299 13.9865 23.1548 13.9043L10.9085 6.94225C10.0288 6.44586 9.3125 6.86057 9.3125 7.86591V7.96016C9.33135 6.94853 10.0351 6.53383 10.9085 7.03022V7.03022Z" fill="white"/>
<defs>
<linearGradient id="paint0_linear_2183_43360" x1="14.2726" y1="7.71369" x2="7.59884" y2="14.3875" gradientUnits="userSpaceOnUse">
<stop stop-color="#00A0FF"/>
<stop offset="0.01" stop-color="#00A1FF"/>
<stop offset="0.26" stop-color="#00BEFF"/>
<stop offset="0.51" stop-color="#00D2FF"/>
<stop offset="0.76" stop-color="#00DFFF"/>
<stop offset="1" stop-color="#00E3FF"/>
</linearGradient>
<linearGradient id="paint1_linear_2183_43360" x1="24.3033" y1="14.8084" x2="9.10379" y2="14.8084" gradientUnits="userSpaceOnUse">
<stop stop-color="#FFE000"/>
<stop offset="0.41" stop-color="#FFBD00"/>
<stop offset="0.78" stop-color="#FFA500"/>
<stop offset="1" stop-color="#FF9C00"/>
</linearGradient>
<linearGradient id="paint2_linear_2183_43360" x1="18.6492" y1="17.3075" x2="7.24836" y2="28.7034" gradientUnits="userSpaceOnUse">
<stop stop-color="#FF3A44"/>
<stop offset="1" stop-color="#C31162"/>
</linearGradient>
<linearGradient id="paint3_linear_2183_43360" x1="7.63483" y1="5.7681" x2="12.7236" y2="10.8569" gradientUnits="userSpaceOnUse">
<stop stop-color="#32A071"/>
<stop offset="0.07" stop-color="#2DA771"/>
<stop offset="0.48" stop-color="#15CF74"/>
<stop offset="0.8" stop-color="#06E775"/>
<stop offset="1" stop-color="#00F076"/>
</linearGradient>
</defs>
</svg>
