<svg width="28" height="28" viewBox="0 0 28 28" fill="none" xmlns="http://www.w3.org/2000/svg">
<g clip-path="url(#clip0_232_1876)">
<path d="M16.5316 13.4013L13.3668 11.9246C13.0907 11.7964 12.8638 11.9401 12.8638 12.2459V15.0274C12.8638 15.3332 13.0907 15.4769 13.3668 15.3487L16.5302 13.872C16.8078 13.7423 16.8078 13.531 16.5316 13.4013ZM14.2729 0.109375C6.80188 0.109375 0.745605 6.16565 0.745605 13.6366C0.745605 21.1076 6.80188 27.1639 14.2729 27.1639C21.7439 27.1639 27.8001 21.1076 27.8001 13.6366C27.8001 6.16565 21.7439 0.109375 14.2729 0.109375ZM14.2729 19.1321C7.34861 19.1321 7.22742 18.5079 7.22742 13.6366C7.22742 8.76542 7.34861 8.14119 14.2729 8.14119C21.1971 8.14119 21.3183 8.76542 21.3183 13.6366C21.3183 18.5079 21.1971 19.1321 14.2729 19.1321Z" fill="white"/>
</g>
<defs>
<clipPath id="clip0_232_1876">
<rect width="27.0545" height="27.0545" fill="white" transform="translate(0.745605 0.109375)"/>
</clipPath>
</defs>
</svg>
