<svg width="515" height="371" viewBox="0 0 515 371" fill="none" xmlns="http://www.w3.org/2000/svg">
<g filter="url(#filter0_d_1_3)">
<rect x="289" y="14" width="210" height="210" rx="105" fill="url(#paint0_radial_1_3)"/>
</g>
<path d="M354.3 123.6C352.42 123.6 350.753 123.227 349.3 122.48C347.86 121.72 346.726 120.667 345.9 119.32C345.086 117.973 344.68 116.413 344.68 114.64C344.68 112.987 345.066 111.473 345.84 110.1C346.613 108.727 347.766 107.647 349.3 106.86L349.22 108.3C347.993 107.54 347.046 106.593 346.38 105.46C345.726 104.313 345.4 103.033 345.4 101.62C345.4 99.98 345.78 98.56 346.54 97.36C347.3 96.16 348.346 95.2333 349.68 94.58C351.026 93.9267 352.566 93.6 354.3 93.6C356.033 93.6 357.566 93.9267 358.9 94.58C360.233 95.2333 361.28 96.16 362.04 97.36C362.8 98.56 363.18 99.98 363.18 101.62C363.18 103.033 362.866 104.307 362.24 105.44C361.613 106.573 360.653 107.527 359.36 108.3L359.3 106.9C360.82 107.647 361.973 108.713 362.76 110.1C363.546 111.473 363.94 112.987 363.94 114.64C363.94 116.413 363.526 117.973 362.7 119.32C361.873 120.667 360.733 121.72 359.28 122.48C357.826 123.227 356.166 123.6 354.3 123.6ZM354.3 119.62C355.846 119.62 357.1 119.2 358.06 118.36C359.02 117.507 359.5 116.267 359.5 114.64C359.5 113.013 359.02 111.773 358.06 110.92C357.113 110.053 355.86 109.62 354.3 109.62C352.74 109.62 351.48 110.053 350.52 110.92C349.573 111.773 349.1 113.013 349.1 114.64C349.1 116.267 349.58 117.507 350.54 118.36C351.5 119.2 352.753 119.62 354.3 119.62ZM354.3 105.62C355.62 105.62 356.686 105.293 357.5 104.64C358.326 103.973 358.74 102.967 358.74 101.62C358.74 100.273 358.326 99.2667 357.5 98.6C356.686 97.92 355.62 97.58 354.3 97.58C352.98 97.58 351.906 97.92 351.08 98.6C350.253 99.2667 349.84 100.273 349.84 101.62C349.84 102.967 350.253 103.973 351.08 104.64C351.906 105.293 352.98 105.62 354.3 105.62ZM376.882 123.6C375.402 123.6 374.022 123.3 372.742 122.7C371.476 122.087 370.389 121.247 369.482 120.18C368.576 119.1 367.929 117.86 367.542 116.46L371.562 115.38C371.789 116.233 372.176 116.973 372.722 117.6C373.282 118.227 373.936 118.713 374.682 119.06C375.429 119.393 376.202 119.56 377.002 119.56C378.056 119.56 379.009 119.307 379.862 118.8C380.729 118.293 381.409 117.613 381.902 116.76C382.409 115.907 382.662 114.967 382.662 113.94C382.662 112.887 382.402 111.933 381.882 111.08C381.376 110.227 380.689 109.553 379.822 109.06C378.969 108.553 378.029 108.3 377.002 108.3C375.829 108.3 374.836 108.533 374.022 109C373.209 109.467 372.576 110.007 372.122 110.62L368.482 109.34L369.362 94.2H384.902V98.14H371.502L373.202 96.56L372.502 107.9L371.682 106.84C372.442 106.08 373.349 105.5 374.402 105.1C375.456 104.7 376.502 104.5 377.542 104.5C379.329 104.5 380.922 104.913 382.322 105.74C383.736 106.567 384.849 107.693 385.662 109.12C386.476 110.533 386.882 112.14 386.882 113.94C386.882 115.727 386.422 117.353 385.502 118.82C384.582 120.273 383.362 121.433 381.842 122.3C380.322 123.167 378.669 123.6 376.882 123.6ZM400.903 123.6C398.943 123.6 397.209 123.173 395.703 122.32C394.196 121.453 393.009 120.267 392.143 118.76C391.289 117.253 390.863 115.52 390.863 113.56V103.64C390.863 101.68 391.289 99.9467 392.143 98.44C393.009 96.9333 394.196 95.7533 395.703 94.9C397.209 94.0333 398.943 93.6 400.903 93.6C402.863 93.6 404.596 94.0333 406.103 94.9C407.609 95.7533 408.789 96.9333 409.642 98.44C410.509 99.9467 410.943 101.68 410.943 103.64V113.56C410.943 115.52 410.509 117.253 409.642 118.76C408.789 120.267 407.609 121.453 406.103 122.32C404.596 123.173 402.863 123.6 400.903 123.6ZM400.903 119.6C401.969 119.6 402.936 119.347 403.803 118.84C404.683 118.32 405.383 117.627 405.903 116.76C406.423 115.88 406.683 114.9 406.683 113.82V103.34C406.683 102.273 406.423 101.307 405.903 100.44C405.383 99.56 404.683 98.8667 403.803 98.36C402.936 97.84 401.969 97.58 400.903 97.58C399.836 97.58 398.863 97.84 397.983 98.36C397.116 98.8667 396.423 99.56 395.903 100.44C395.383 101.307 395.123 102.273 395.123 103.34V113.82C395.123 114.9 395.383 115.88 395.903 116.76C396.423 117.627 397.116 118.32 397.983 118.84C398.863 119.347 399.836 119.6 400.903 119.6ZM425.767 123.6C423.807 123.6 422.073 123.173 420.567 122.32C419.06 121.453 417.873 120.267 417.007 118.76C416.153 117.253 415.727 115.52 415.727 113.56V103.64C415.727 101.68 416.153 99.9467 417.007 98.44C417.873 96.9333 419.06 95.7533 420.567 94.9C422.073 94.0333 423.807 93.6 425.767 93.6C427.727 93.6 429.46 94.0333 430.967 94.9C432.473 95.7533 433.653 96.9333 434.507 98.44C435.373 99.9467 435.807 101.68 435.807 103.64V113.56C435.807 115.52 435.373 117.253 434.507 118.76C433.653 120.267 432.473 121.453 430.967 122.32C429.46 123.173 427.727 123.6 425.767 123.6ZM425.767 119.6C426.833 119.6 427.8 119.347 428.667 118.84C429.547 118.32 430.247 117.627 430.767 116.76C431.287 115.88 431.547 114.9 431.547 113.82V103.34C431.547 102.273 431.287 101.307 430.767 100.44C430.247 99.56 429.547 98.8667 428.667 98.36C427.8 97.84 426.833 97.58 425.767 97.58C424.7 97.58 423.727 97.84 422.847 98.36C421.98 98.8667 421.287 99.56 420.767 100.44C420.247 101.307 419.987 102.273 419.987 103.34V113.82C419.987 114.9 420.247 115.88 420.767 116.76C421.287 117.627 421.98 118.32 422.847 118.84C423.727 119.347 424.7 119.6 425.767 119.6ZM447.591 117.66V110.26H440.191V106.9H447.591V99.54H450.951V106.9H458.331V110.26H450.951V117.66H447.591Z" fill="#4A1049"/>
<path d="M362.472 149V137.48H369.672V138.608H363.648V142.592H368.712V143.72H363.648V147.872H369.672V149H362.472ZM381.901 149L381.909 143.328C381.909 142.661 381.722 142.139 381.349 141.76C380.981 141.376 380.511 141.184 379.941 141.184C379.615 141.184 379.298 141.259 378.989 141.408C378.679 141.557 378.423 141.797 378.221 142.128C378.023 142.459 377.925 142.891 377.925 143.424L377.229 143.224C377.213 142.605 377.333 142.064 377.589 141.6C377.85 141.136 378.207 140.776 378.661 140.52C379.119 140.259 379.637 140.128 380.213 140.128C381.082 140.128 381.778 140.397 382.301 140.936C382.823 141.469 383.085 142.192 383.085 143.104L383.077 149H381.901ZM371.589 149V140.36H372.645V142.488H372.773V149H371.589ZM376.757 149L376.765 143.408C376.765 142.72 376.581 142.179 376.213 141.784C375.85 141.384 375.37 141.184 374.773 141.184C374.175 141.184 373.693 141.389 373.325 141.8C372.957 142.205 372.773 142.747 372.773 143.424L372.069 143.04C372.069 142.485 372.199 141.989 372.461 141.552C372.722 141.109 373.079 140.763 373.533 140.512C373.986 140.256 374.501 140.128 375.077 140.128C375.626 140.128 376.114 140.245 376.541 140.48C376.973 140.715 377.311 141.056 377.557 141.504C377.802 141.952 377.925 142.496 377.925 143.136L377.917 149H376.757ZM389.039 149.24C388.244 149.24 387.572 149.04 387.023 148.64C386.474 148.235 386.058 147.688 385.775 147C385.492 146.307 385.351 145.531 385.351 144.672C385.351 143.797 385.492 143.019 385.775 142.336C386.063 141.648 386.484 141.107 387.039 140.712C387.594 140.317 388.276 140.12 389.087 140.12C389.876 140.12 390.554 140.32 391.119 140.72C391.684 141.12 392.116 141.664 392.415 142.352C392.719 143.04 392.871 143.813 392.871 144.672C392.871 145.536 392.719 146.312 392.415 147C392.111 147.688 391.674 148.235 391.103 148.64C390.532 149.04 389.844 149.24 389.039 149.24ZM385.151 152.84V140.36H386.207V146.864H386.335V152.84H385.151ZM388.919 148.144C389.522 148.144 390.023 147.992 390.423 147.688C390.823 147.384 391.122 146.971 391.319 146.448C391.522 145.92 391.623 145.328 391.623 144.672C391.623 144.021 391.524 143.435 391.327 142.912C391.13 142.389 390.828 141.976 390.423 141.672C390.023 141.368 389.514 141.216 388.895 141.216C388.292 141.216 387.791 141.363 387.391 141.656C386.996 141.949 386.7 142.357 386.503 142.88C386.306 143.397 386.207 143.995 386.207 144.672C386.207 145.339 386.306 145.936 386.503 146.464C386.7 146.987 386.999 147.397 387.399 147.696C387.799 147.995 388.306 148.144 388.919 148.144ZM394.788 149V137.24H395.964V149H394.788ZM401.97 149.24C401.112 149.24 400.378 149.045 399.77 148.656C399.162 148.267 398.696 147.728 398.37 147.04C398.045 146.352 397.882 145.563 397.882 144.672C397.882 143.765 398.048 142.971 398.378 142.288C398.709 141.605 399.178 141.075 399.786 140.696C400.4 140.312 401.128 140.12 401.97 140.12C402.834 140.12 403.57 140.315 404.178 140.704C404.792 141.088 405.258 141.624 405.578 142.312C405.904 142.995 406.066 143.781 406.066 144.672C406.066 145.579 405.904 146.376 405.578 147.064C405.253 147.747 404.784 148.28 404.17 148.664C403.557 149.048 402.824 149.24 401.97 149.24ZM401.97 148.112C402.93 148.112 403.645 147.795 404.114 147.16C404.584 146.52 404.818 145.691 404.818 144.672C404.818 143.627 404.581 142.795 404.106 142.176C403.637 141.557 402.925 141.248 401.97 141.248C401.325 141.248 400.792 141.395 400.37 141.688C399.954 141.976 399.642 142.379 399.434 142.896C399.232 143.408 399.13 144 399.13 144.672C399.13 145.712 399.37 146.547 399.85 147.176C400.33 147.8 401.037 148.112 401.97 148.112ZM408.75 152.84L410.422 148.304L410.446 149.648L406.662 140.36H407.91L411.014 148.128H410.502L413.366 140.36H414.566L409.926 152.84H408.75ZM419.299 149.24C418.457 149.24 417.726 149.053 417.107 148.68C416.494 148.307 416.017 147.781 415.675 147.104C415.334 146.427 415.163 145.632 415.163 144.72C415.163 143.776 415.331 142.96 415.667 142.272C416.003 141.584 416.475 141.053 417.083 140.68C417.697 140.307 418.419 140.12 419.251 140.12C420.105 140.12 420.833 140.317 421.435 140.712C422.038 141.101 422.494 141.661 422.803 142.392C423.113 143.123 423.254 143.995 423.227 145.008H422.027V144.592C422.006 143.472 421.763 142.627 421.299 142.056C420.841 141.485 420.169 141.2 419.283 141.2C418.355 141.2 417.643 141.501 417.147 142.104C416.657 142.707 416.411 143.565 416.411 144.68C416.411 145.768 416.657 146.613 417.147 147.216C417.643 147.813 418.345 148.112 419.251 148.112C419.87 148.112 420.409 147.971 420.867 147.688C421.331 147.4 421.697 146.987 421.963 146.448L423.059 146.872C422.718 147.624 422.214 148.208 421.547 148.624C420.886 149.035 420.137 149.24 419.299 149.24ZM415.995 145.008V144.024H422.595V145.008H415.995ZM428.659 149.24C427.816 149.24 427.085 149.053 426.467 148.68C425.853 148.307 425.376 147.781 425.035 147.104C424.693 146.427 424.523 145.632 424.523 144.72C424.523 143.776 424.691 142.96 425.027 142.272C425.363 141.584 425.835 141.053 426.443 140.68C427.056 140.307 427.779 140.12 428.611 140.12C429.464 140.12 430.192 140.317 430.795 140.712C431.397 141.101 431.853 141.661 432.163 142.392C432.472 143.123 432.613 143.995 432.587 145.008H431.387V144.592C431.365 143.472 431.123 142.627 430.659 142.056C430.2 141.485 429.528 141.2 428.643 141.2C427.715 141.2 427.003 141.501 426.507 142.104C426.016 142.707 425.771 143.565 425.771 144.68C425.771 145.768 426.016 146.613 426.507 147.216C427.003 147.813 427.704 148.112 428.611 148.112C429.229 148.112 429.768 147.971 430.227 147.688C430.691 147.4 431.056 146.987 431.323 146.448L432.419 146.872C432.077 147.624 431.573 148.208 430.907 148.624C430.245 149.035 429.496 149.24 428.659 149.24ZM425.355 145.008V144.024H431.955V145.008H425.355ZM437.586 149.232C436.573 149.232 435.738 149.013 435.082 148.576C434.432 148.139 434.032 147.531 433.882 146.752L435.082 146.552C435.21 147.043 435.501 147.435 435.954 147.728C436.413 148.016 436.978 148.16 437.65 148.16C438.306 148.16 438.824 148.024 439.202 147.752C439.581 147.475 439.77 147.099 439.77 146.624C439.77 146.357 439.709 146.141 439.586 145.976C439.469 145.805 439.226 145.648 438.858 145.504C438.49 145.36 437.941 145.189 437.21 144.992C436.426 144.779 435.813 144.565 435.37 144.352C434.928 144.139 434.613 143.893 434.426 143.616C434.24 143.333 434.146 142.989 434.146 142.584C434.146 142.093 434.285 141.664 434.562 141.296C434.84 140.923 435.224 140.635 435.714 140.432C436.205 140.224 436.776 140.12 437.426 140.12C438.077 140.12 438.658 140.227 439.17 140.44C439.688 140.648 440.104 140.941 440.418 141.32C440.733 141.699 440.92 142.139 440.978 142.64L439.778 142.856C439.698 142.349 439.445 141.949 439.018 141.656C438.597 141.357 438.061 141.203 437.41 141.192C436.797 141.176 436.298 141.293 435.914 141.544C435.53 141.789 435.338 142.117 435.338 142.528C435.338 142.757 435.408 142.955 435.546 143.12C435.685 143.28 435.936 143.432 436.298 143.576C436.666 143.72 437.189 143.877 437.866 144.048C438.661 144.251 439.285 144.464 439.738 144.688C440.192 144.912 440.514 145.176 440.706 145.48C440.898 145.784 440.994 146.16 440.994 146.608C440.994 147.424 440.69 148.067 440.082 148.536C439.48 149 438.648 149.232 437.586 149.232Z" fill="#4A1049"/>
<rect x="193" y="161" width="210" height="210" rx="105" fill="url(#paint1_radial_1_3)"/>
<path d="M217.359 269.98L217.379 266.26L229.919 255.02C230.932 254.127 231.619 253.273 231.979 252.46C232.352 251.647 232.539 250.833 232.539 250.02C232.539 248.993 232.312 248.073 231.859 247.26C231.405 246.433 230.779 245.78 229.979 245.3C229.179 244.82 228.259 244.58 227.219 244.58C226.152 244.58 225.199 244.833 224.359 245.34C223.532 245.833 222.885 246.493 222.419 247.32C221.952 248.147 221.725 249.04 221.739 250H217.459C217.459 248.133 217.879 246.5 218.719 245.1C219.572 243.687 220.739 242.587 222.219 241.8C223.699 241 225.392 240.6 227.299 240.6C229.112 240.6 230.739 241.013 232.179 241.84C233.619 242.653 234.752 243.773 235.579 245.2C236.419 246.627 236.839 248.253 236.839 250.08C236.839 251.4 236.665 252.52 236.319 253.44C235.972 254.36 235.452 255.213 234.759 256C234.065 256.787 233.199 257.64 232.159 258.56L222.479 267.2L222.019 266H236.839V269.98H217.359ZM240.435 274.78L240.695 272.92C241.268 272.96 241.715 272.853 242.035 272.6C242.355 272.347 242.568 271.993 242.675 271.54C242.782 271.087 242.802 270.573 242.735 270H240.435V265.18H244.855V270.4C244.855 271.973 244.475 273.16 243.715 273.96C242.968 274.76 241.875 275.033 240.435 274.78ZM259.697 270.54C258.27 270.54 256.93 270.273 255.677 269.74C254.423 269.193 253.337 268.42 252.417 267.42C251.51 266.42 250.85 265.24 250.437 263.88L254.477 262.76C254.863 264 255.537 264.953 256.497 265.62C257.457 266.273 258.523 266.593 259.697 266.58C260.75 266.567 261.677 266.32 262.477 265.84C263.277 265.36 263.903 264.713 264.357 263.9C264.81 263.073 265.037 262.127 265.037 261.06C265.037 259.46 264.537 258.14 263.537 257.1C262.55 256.06 261.257 255.54 259.657 255.54C259.203 255.54 258.737 255.607 258.257 255.74C257.79 255.873 257.35 256.047 256.937 256.26L254.977 252.96L265.137 243.98L265.577 245.18H251.577V241.2H268.897V245.18L260.457 253.3L260.417 251.94C262.23 251.94 263.803 252.347 265.137 253.16C266.47 253.96 267.497 255.053 268.217 256.44C268.95 257.813 269.317 259.353 269.317 261.06C269.317 262.9 268.883 264.533 268.017 265.96C267.163 267.387 266.01 268.507 264.557 269.32C263.117 270.133 261.497 270.54 259.697 270.54ZM282.267 270.6C280.787 270.6 279.407 270.3 278.127 269.7C276.861 269.087 275.774 268.247 274.867 267.18C273.961 266.1 273.314 264.86 272.927 263.46L276.947 262.38C277.174 263.233 277.561 263.973 278.107 264.6C278.667 265.227 279.321 265.713 280.067 266.06C280.814 266.393 281.587 266.56 282.387 266.56C283.441 266.56 284.394 266.307 285.247 265.8C286.114 265.293 286.794 264.613 287.287 263.76C287.794 262.907 288.047 261.967 288.047 260.94C288.047 259.887 287.787 258.933 287.267 258.08C286.761 257.227 286.074 256.553 285.207 256.06C284.354 255.553 283.414 255.3 282.387 255.3C281.214 255.3 280.221 255.533 279.407 256C278.594 256.467 277.961 257.007 277.507 257.62L273.867 256.34L274.747 241.2H290.287V245.14H276.887L278.587 243.56L277.887 254.9L277.067 253.84C277.827 253.08 278.734 252.5 279.787 252.1C280.841 251.7 281.887 251.5 282.927 251.5C284.714 251.5 286.307 251.913 287.707 252.74C289.121 253.567 290.234 254.693 291.047 256.12C291.861 257.533 292.267 259.14 292.267 260.94C292.267 262.727 291.807 264.353 290.887 265.82C289.967 267.273 288.747 268.433 287.227 269.3C285.707 270.167 284.054 270.6 282.267 270.6ZM295.848 274.78L296.108 272.92C296.681 272.96 297.128 272.853 297.448 272.6C297.768 272.347 297.981 271.993 298.088 271.54C298.194 271.087 298.214 270.573 298.148 270H295.848V265.18H300.268V270.4C300.268 271.973 299.888 273.16 299.128 273.96C298.381 274.76 297.288 275.033 295.848 274.78ZM317.089 270.6C315.129 270.6 313.396 270.173 311.889 269.32C310.383 268.453 309.196 267.267 308.329 265.76C307.476 264.253 307.049 262.52 307.049 260.56V250.64C307.049 248.68 307.476 246.947 308.329 245.44C309.196 243.933 310.383 242.753 311.889 241.9C313.396 241.033 315.129 240.6 317.089 240.6C319.049 240.6 320.783 241.033 322.289 241.9C323.796 242.753 324.976 243.933 325.829 245.44C326.696 246.947 327.129 248.68 327.129 250.64V260.56C327.129 262.52 326.696 264.253 325.829 265.76C324.976 267.267 323.796 268.453 322.289 269.32C320.783 270.173 319.049 270.6 317.089 270.6ZM317.089 266.6C318.156 266.6 319.123 266.347 319.989 265.84C320.869 265.32 321.569 264.627 322.089 263.76C322.609 262.88 322.869 261.9 322.869 260.82V250.34C322.869 249.273 322.609 248.307 322.089 247.44C321.569 246.56 320.869 245.867 319.989 245.36C319.123 244.84 318.156 244.58 317.089 244.58C316.023 244.58 315.049 244.84 314.169 245.36C313.303 245.867 312.609 246.56 312.089 247.44C311.569 248.307 311.309 249.273 311.309 250.34V260.82C311.309 261.9 311.569 262.88 312.089 263.76C312.609 264.627 313.303 265.32 314.169 265.84C315.049 266.347 316.023 266.6 317.089 266.6ZM341.953 270.6C339.993 270.6 338.26 270.173 336.753 269.32C335.247 268.453 334.06 267.267 333.193 265.76C332.34 264.253 331.913 262.52 331.913 260.56V250.64C331.913 248.68 332.34 246.947 333.193 245.44C334.06 243.933 335.247 242.753 336.753 241.9C338.26 241.033 339.993 240.6 341.953 240.6C343.913 240.6 345.647 241.033 347.153 241.9C348.66 242.753 349.84 243.933 350.693 245.44C351.56 246.947 351.993 248.68 351.993 250.64V260.56C351.993 262.52 351.56 264.253 350.693 265.76C349.84 267.267 348.66 268.453 347.153 269.32C345.647 270.173 343.913 270.6 341.953 270.6ZM341.953 266.6C343.02 266.6 343.987 266.347 344.853 265.84C345.733 265.32 346.433 264.627 346.953 263.76C347.473 262.88 347.733 261.9 347.733 260.82V250.34C347.733 249.273 347.473 248.307 346.953 247.44C346.433 246.56 345.733 245.867 344.853 245.36C343.987 244.84 343.02 244.58 341.953 244.58C340.887 244.58 339.913 244.84 339.033 245.36C338.167 245.867 337.473 246.56 336.953 247.44C336.433 248.307 336.173 249.273 336.173 250.34V260.82C336.173 261.9 336.433 262.88 336.953 263.76C337.473 264.627 338.167 265.32 339.033 265.84C339.913 266.347 340.887 266.6 341.953 266.6ZM366.817 270.6C364.857 270.6 363.124 270.173 361.617 269.32C360.111 268.453 358.924 267.267 358.057 265.76C357.204 264.253 356.777 262.52 356.777 260.56V250.64C356.777 248.68 357.204 246.947 358.057 245.44C358.924 243.933 360.111 242.753 361.617 241.9C363.124 241.033 364.857 240.6 366.817 240.6C368.777 240.6 370.511 241.033 372.017 241.9C373.524 242.753 374.704 243.933 375.557 245.44C376.424 246.947 376.857 248.68 376.857 250.64V260.56C376.857 262.52 376.424 264.253 375.557 265.76C374.704 267.267 373.524 268.453 372.017 269.32C370.511 270.173 368.777 270.6 366.817 270.6ZM366.817 266.6C367.884 266.6 368.851 266.347 369.717 265.84C370.597 265.32 371.297 264.627 371.817 263.76C372.337 262.88 372.597 261.9 372.597 260.82V250.34C372.597 249.273 372.337 248.307 371.817 247.44C371.297 246.56 370.597 245.867 369.717 245.36C368.851 244.84 367.884 244.58 366.817 244.58C365.751 244.58 364.777 244.84 363.897 245.36C363.031 245.867 362.337 246.56 361.817 247.44C361.297 248.307 361.037 249.273 361.037 250.34V260.82C361.037 261.9 361.297 262.88 361.817 263.76C362.337 264.627 363.031 265.32 363.897 265.84C364.777 266.347 365.751 266.6 366.817 266.6Z" fill="#4A1049"/>
<path d="M253.308 296.24C252.502 296.24 251.777 296.107 251.132 295.84C250.492 295.568 249.961 295.184 249.54 294.688C249.124 294.192 248.852 293.603 248.724 292.92L249.924 292.72C250.116 293.467 250.521 294.053 251.14 294.48C251.758 294.901 252.497 295.112 253.356 295.112C253.921 295.112 254.428 295.024 254.876 294.848C255.324 294.667 255.676 294.411 255.932 294.08C256.188 293.749 256.316 293.357 256.316 292.904C256.316 292.605 256.262 292.352 256.156 292.144C256.049 291.931 255.908 291.755 255.732 291.616C255.556 291.477 255.364 291.363 255.156 291.272C254.948 291.176 254.745 291.099 254.548 291.04L251.628 290.168C251.276 290.067 250.95 289.939 250.652 289.784C250.353 289.624 250.092 289.435 249.868 289.216C249.649 288.992 249.478 288.731 249.356 288.432C249.233 288.133 249.172 287.792 249.172 287.408C249.172 286.757 249.342 286.195 249.684 285.72C250.025 285.245 250.492 284.88 251.084 284.624C251.676 284.368 252.35 284.243 253.108 284.248C253.876 284.248 254.561 284.384 255.164 284.656C255.772 284.928 256.273 285.317 256.668 285.824C257.062 286.325 257.324 286.92 257.452 287.608L256.22 287.832C256.14 287.331 255.956 286.896 255.668 286.528C255.38 286.16 255.012 285.877 254.564 285.68C254.121 285.477 253.633 285.373 253.1 285.368C252.582 285.368 252.121 285.456 251.716 285.632C251.316 285.803 250.998 286.037 250.764 286.336C250.529 286.635 250.412 286.976 250.412 287.36C250.412 287.749 250.518 288.061 250.732 288.296C250.95 288.531 251.217 288.715 251.532 288.848C251.852 288.981 252.161 289.091 252.46 289.176L254.716 289.84C254.95 289.904 255.225 289.997 255.54 290.12C255.86 290.237 256.169 290.408 256.468 290.632C256.772 290.851 257.022 291.139 257.22 291.496C257.417 291.853 257.516 292.307 257.516 292.856C257.516 293.389 257.409 293.867 257.196 294.288C256.988 294.709 256.692 295.064 256.308 295.352C255.929 295.64 255.484 295.859 254.972 296.008C254.465 296.163 253.91 296.24 253.308 296.24ZM265.407 296V291.592C265.407 291.112 265.362 290.672 265.271 290.272C265.18 289.867 265.034 289.515 264.831 289.216C264.634 288.912 264.375 288.677 264.055 288.512C263.74 288.347 263.356 288.264 262.903 288.264C262.487 288.264 262.119 288.336 261.799 288.48C261.484 288.624 261.218 288.832 260.999 289.104C260.786 289.371 260.623 289.696 260.511 290.08C260.399 290.464 260.343 290.901 260.343 291.392L259.511 291.208C259.511 290.323 259.666 289.579 259.975 288.976C260.284 288.373 260.711 287.917 261.255 287.608C261.799 287.299 262.423 287.144 263.127 287.144C263.644 287.144 264.095 287.224 264.479 287.384C264.868 287.544 265.196 287.76 265.463 288.032C265.735 288.304 265.954 288.616 266.119 288.968C266.284 289.315 266.404 289.685 266.479 290.08C266.554 290.469 266.591 290.859 266.591 291.248V296H265.407ZM259.159 296V284.48H260.223V290.984H260.343V296H259.159ZM271.139 296.24C270.488 296.24 269.942 296.123 269.499 295.888C269.062 295.653 268.734 295.341 268.515 294.952C268.296 294.563 268.187 294.139 268.187 293.68C268.187 293.211 268.28 292.811 268.467 292.48C268.659 292.144 268.918 291.869 269.243 291.656C269.574 291.443 269.955 291.28 270.387 291.168C270.824 291.061 271.307 290.968 271.835 290.888C272.368 290.803 272.888 290.731 273.395 290.672C273.907 290.608 274.355 290.547 274.739 290.488L274.323 290.744C274.339 289.891 274.174 289.259 273.827 288.848C273.48 288.437 272.878 288.232 272.019 288.232C271.427 288.232 270.926 288.365 270.515 288.632C270.11 288.899 269.824 289.32 269.659 289.896L268.515 289.56C268.712 288.787 269.11 288.187 269.707 287.76C270.304 287.333 271.08 287.12 272.035 287.12C272.824 287.12 273.494 287.269 274.043 287.568C274.598 287.861 274.99 288.288 275.219 288.848C275.326 289.099 275.395 289.379 275.427 289.688C275.459 289.997 275.475 290.312 275.475 290.632V296H274.427V293.832L274.731 293.96C274.438 294.701 273.982 295.267 273.363 295.656C272.744 296.045 272.003 296.24 271.139 296.24ZM271.275 295.224C271.824 295.224 272.304 295.125 272.715 294.928C273.126 294.731 273.456 294.461 273.707 294.12C273.958 293.773 274.12 293.384 274.195 292.952C274.259 292.675 274.294 292.371 274.299 292.04C274.304 291.704 274.307 291.453 274.307 291.288L274.755 291.52C274.355 291.573 273.92 291.627 273.451 291.68C272.987 291.733 272.528 291.795 272.075 291.864C271.627 291.933 271.222 292.016 270.859 292.112C270.614 292.181 270.376 292.28 270.147 292.408C269.918 292.531 269.728 292.696 269.579 292.904C269.435 293.112 269.363 293.371 269.363 293.68C269.363 293.931 269.424 294.173 269.547 294.408C269.675 294.643 269.878 294.837 270.155 294.992C270.438 295.147 270.811 295.224 271.275 295.224ZM277.558 296V287.36H278.614V289.44L278.406 289.168C278.502 288.912 278.627 288.677 278.782 288.464C278.936 288.245 279.104 288.067 279.286 287.928C279.51 287.731 279.771 287.581 280.07 287.48C280.368 287.373 280.67 287.312 280.974 287.296C281.278 287.275 281.555 287.296 281.806 287.36V288.464C281.491 288.384 281.147 288.365 280.774 288.408C280.4 288.451 280.056 288.6 279.742 288.856C279.454 289.08 279.238 289.349 279.094 289.664C278.95 289.973 278.854 290.304 278.806 290.656C278.758 291.003 278.734 291.347 278.734 291.688V296H277.558ZM286.823 296.24C285.98 296.24 285.25 296.053 284.631 295.68C284.018 295.307 283.54 294.781 283.199 294.104C282.858 293.427 282.687 292.632 282.687 291.72C282.687 290.776 282.855 289.96 283.191 289.272C283.527 288.584 283.999 288.053 284.607 287.68C285.22 287.307 285.943 287.12 286.775 287.12C287.628 287.12 288.356 287.317 288.959 287.712C289.562 288.101 290.018 288.661 290.327 289.392C290.636 290.123 290.778 290.995 290.751 292.008H289.551V291.592C289.53 290.472 289.287 289.627 288.823 289.056C288.364 288.485 287.692 288.2 286.807 288.2C285.879 288.2 285.167 288.501 284.671 289.104C284.18 289.707 283.935 290.565 283.935 291.68C283.935 292.768 284.18 293.613 284.671 294.216C285.167 294.813 285.868 295.112 286.775 295.112C287.394 295.112 287.932 294.971 288.391 294.688C288.855 294.4 289.22 293.987 289.487 293.448L290.583 293.872C290.242 294.624 289.738 295.208 289.071 295.624C288.41 296.035 287.66 296.24 286.823 296.24ZM283.519 292.008V291.024H290.119V292.008H283.519ZM298.766 296V291.592C298.766 291.112 298.721 290.672 298.63 290.272C298.54 289.867 298.393 289.515 298.19 289.216C297.993 288.912 297.734 288.677 297.414 288.512C297.1 288.347 296.716 288.264 296.262 288.264C295.846 288.264 295.478 288.336 295.158 288.48C294.844 288.624 294.577 288.832 294.358 289.104C294.145 289.371 293.982 289.696 293.87 290.08C293.758 290.464 293.702 290.901 293.702 291.392L292.87 291.208C292.87 290.323 293.025 289.579 293.334 288.976C293.644 288.373 294.07 287.917 294.614 287.608C295.158 287.299 295.782 287.144 296.486 287.144C297.004 287.144 297.454 287.224 297.838 287.384C298.228 287.544 298.556 287.76 298.822 288.032C299.094 288.304 299.313 288.616 299.478 288.968C299.644 289.315 299.764 289.685 299.838 290.08C299.913 290.469 299.95 290.859 299.95 291.248V296H298.766ZM292.518 296V284.48H293.582V290.984H293.702V296H292.518ZM305.634 296.24C304.776 296.24 304.042 296.045 303.434 295.656C302.826 295.267 302.36 294.728 302.034 294.04C301.709 293.352 301.546 292.563 301.546 291.672C301.546 290.765 301.712 289.971 302.042 289.288C302.373 288.605 302.842 288.075 303.45 287.696C304.064 287.312 304.792 287.12 305.634 287.12C306.498 287.12 307.234 287.315 307.842 287.704C308.456 288.088 308.922 288.624 309.242 289.312C309.568 289.995 309.73 290.781 309.73 291.672C309.73 292.579 309.568 293.376 309.242 294.064C308.917 294.747 308.448 295.28 307.834 295.664C307.221 296.048 306.488 296.24 305.634 296.24ZM305.634 295.112C306.594 295.112 307.309 294.795 307.778 294.16C308.248 293.52 308.482 292.691 308.482 291.672C308.482 290.627 308.245 289.795 307.77 289.176C307.301 288.557 306.589 288.248 305.634 288.248C304.989 288.248 304.456 288.395 304.034 288.688C303.618 288.976 303.306 289.379 303.098 289.896C302.896 290.408 302.794 291 302.794 291.672C302.794 292.712 303.034 293.547 303.514 294.176C303.994 294.8 304.701 295.112 305.634 295.112ZM311.655 296V284.24H312.831V296H311.655ZM318.581 296.24C317.776 296.24 317.088 296.04 316.517 295.64C315.947 295.235 315.509 294.688 315.205 294C314.901 293.312 314.749 292.536 314.749 291.672C314.749 290.813 314.899 290.04 315.197 289.352C315.501 288.664 315.936 288.12 316.501 287.72C317.067 287.32 317.744 287.12 318.533 287.12C319.344 287.12 320.027 287.317 320.581 287.712C321.136 288.107 321.555 288.648 321.837 289.336C322.125 290.019 322.269 290.797 322.269 291.672C322.269 292.531 322.128 293.307 321.845 294C321.563 294.688 321.147 295.235 320.597 295.64C320.048 296.04 319.376 296.24 318.581 296.24ZM318.701 295.144C319.315 295.144 319.821 294.995 320.221 294.696C320.621 294.397 320.92 293.987 321.117 293.464C321.315 292.936 321.413 292.339 321.413 291.672C321.413 290.995 321.315 290.397 321.117 289.88C320.92 289.357 320.621 288.949 320.221 288.656C319.827 288.363 319.328 288.216 318.725 288.216C318.107 288.216 317.595 288.368 317.189 288.672C316.784 288.976 316.483 289.389 316.285 289.912C316.093 290.435 315.997 291.021 315.997 291.672C315.997 292.328 316.096 292.92 316.293 293.448C316.496 293.971 316.797 294.384 317.197 294.688C317.597 294.992 318.099 295.144 318.701 295.144ZM321.413 296V289.496H321.285V284.48H322.469V296H321.413ZM328.37 296.24C327.527 296.24 326.796 296.053 326.178 295.68C325.564 295.307 325.087 294.781 324.746 294.104C324.404 293.427 324.234 292.632 324.234 291.72C324.234 290.776 324.402 289.96 324.738 289.272C325.074 288.584 325.546 288.053 326.154 287.68C326.767 287.307 327.49 287.12 328.322 287.12C329.175 287.12 329.903 287.317 330.506 287.712C331.108 288.101 331.564 288.661 331.874 289.392C332.183 290.123 332.324 290.995 332.298 292.008H331.098V291.592C331.076 290.472 330.834 289.627 330.37 289.056C329.911 288.485 329.239 288.2 328.354 288.2C327.426 288.2 326.714 288.501 326.218 289.104C325.727 289.707 325.482 290.565 325.482 291.68C325.482 292.768 325.727 293.613 326.218 294.216C326.714 294.813 327.415 295.112 328.322 295.112C328.94 295.112 329.479 294.971 329.938 294.688C330.402 294.4 330.767 293.987 331.034 293.448L332.13 293.872C331.788 294.624 331.284 295.208 330.618 295.624C329.956 296.035 329.207 296.24 328.37 296.24ZM325.066 292.008V291.024H331.666V292.008H325.066ZM334.073 296V287.36H335.129V289.44L334.921 289.168C335.017 288.912 335.142 288.677 335.297 288.464C335.452 288.245 335.62 288.067 335.801 287.928C336.025 287.731 336.286 287.581 336.585 287.48C336.884 287.373 337.185 287.312 337.489 287.296C337.793 287.275 338.07 287.296 338.321 287.36V288.464C338.006 288.384 337.662 288.365 337.289 288.408C336.916 288.451 336.572 288.6 336.257 288.856C335.969 289.08 335.753 289.349 335.609 289.664C335.465 289.973 335.369 290.304 335.321 290.656C335.273 291.003 335.249 291.347 335.249 291.688V296H334.073ZM342.75 296.232C341.737 296.232 340.902 296.013 340.246 295.576C339.596 295.139 339.196 294.531 339.046 293.752L340.246 293.552C340.374 294.043 340.665 294.435 341.118 294.728C341.577 295.016 342.142 295.16 342.814 295.16C343.47 295.16 343.988 295.024 344.366 294.752C344.745 294.475 344.934 294.099 344.934 293.624C344.934 293.357 344.873 293.141 344.75 292.976C344.633 292.805 344.39 292.648 344.022 292.504C343.654 292.36 343.105 292.189 342.374 291.992C341.59 291.779 340.977 291.565 340.534 291.352C340.092 291.139 339.777 290.893 339.59 290.616C339.404 290.333 339.31 289.989 339.31 289.584C339.31 289.093 339.449 288.664 339.726 288.296C340.004 287.923 340.388 287.635 340.878 287.432C341.369 287.224 341.94 287.12 342.59 287.12C343.241 287.12 343.822 287.227 344.334 287.44C344.852 287.648 345.268 287.941 345.582 288.32C345.897 288.699 346.084 289.139 346.142 289.64L344.942 289.856C344.862 289.349 344.609 288.949 344.182 288.656C343.761 288.357 343.225 288.203 342.574 288.192C341.961 288.176 341.462 288.293 341.078 288.544C340.694 288.789 340.502 289.117 340.502 289.528C340.502 289.757 340.572 289.955 340.71 290.12C340.849 290.28 341.1 290.432 341.462 290.576C341.83 290.72 342.353 290.877 343.03 291.048C343.825 291.251 344.449 291.464 344.902 291.688C345.356 291.912 345.678 292.176 345.87 292.48C346.062 292.784 346.158 293.16 346.158 293.608C346.158 294.424 345.854 295.067 345.246 295.536C344.644 296 343.812 296.232 342.75 296.232Z" fill="#4A1049"/>
<rect x="104" y="10" width="210" height="210" rx="105" fill="url(#paint2_radial_1_3)"/>
<path d="M131.103 118V95.01L125.954 98.145V93.718L131.103 90.64H135.15V118H131.103ZM149.262 118.513C147.907 118.513 146.634 118.26 145.443 117.753C144.253 117.234 143.22 116.499 142.346 115.549C141.485 114.599 140.858 113.478 140.465 112.186L144.303 111.122C144.671 112.3 145.31 113.206 146.222 113.839C147.134 114.46 148.148 114.764 149.262 114.751C150.263 114.738 151.143 114.504 151.903 114.048C152.663 113.592 153.259 112.978 153.689 112.205C154.12 111.42 154.335 110.52 154.335 109.507C154.335 107.987 153.86 106.733 152.91 105.745C151.973 104.757 150.744 104.263 149.224 104.263C148.794 104.263 148.35 104.326 147.894 104.453C147.451 104.58 147.033 104.744 146.64 104.947L144.778 101.812L154.43 93.281L154.848 94.421H141.548V90.64H158.002V94.421L149.984 102.135L149.946 100.843C151.669 100.843 153.164 101.229 154.43 102.002C155.697 102.762 156.672 103.801 157.356 105.118C158.053 106.423 158.401 107.886 158.401 109.507C158.401 111.255 157.99 112.807 157.166 114.162C156.356 115.517 155.26 116.581 153.879 117.354C152.511 118.127 150.972 118.513 149.262 118.513ZM169.439 118V90.64H173.03L182.948 111.217L192.809 90.64H196.438V117.981H192.676V99.266L183.841 118H182.036L173.182 99.266V118H169.439ZM201.381 94.117V90.26H205.352V94.117H201.381ZM201.381 118V97.48H205.352V118H201.381ZM210.678 118V90.07H214.649V118H210.678ZM219.974 118V90.07H223.945V118H219.974ZM229.271 94.117V90.26H233.242V94.117H229.271ZM229.271 118V97.48H233.242V118H229.271ZM247.099 118.57C245.047 118.57 243.267 118.108 241.76 117.183C240.252 116.258 239.087 114.985 238.264 113.364C237.453 111.73 237.048 109.849 237.048 107.721C237.048 105.58 237.466 103.699 238.302 102.078C239.138 100.444 240.309 99.1773 241.817 98.278C243.324 97.366 245.085 96.91 247.099 96.91C249.151 96.91 250.93 97.3723 252.438 98.297C253.945 99.2217 255.11 100.495 255.934 102.116C256.757 103.737 257.169 105.606 257.169 107.721C257.169 109.862 256.751 111.749 255.915 113.383C255.091 115.004 253.926 116.277 252.419 117.202C250.911 118.114 249.138 118.57 247.099 118.57ZM247.099 114.827C249.062 114.827 250.525 114.168 251.488 112.851C252.463 111.521 252.951 109.811 252.951 107.721C252.951 105.58 252.457 103.87 251.469 102.591C250.493 101.299 249.037 100.653 247.099 100.653C245.769 100.653 244.673 100.957 243.812 101.565C242.95 102.16 242.311 102.99 241.893 104.054C241.475 105.105 241.266 106.328 241.266 107.721C241.266 109.874 241.76 111.597 242.748 112.889C243.736 114.181 245.186 114.827 247.099 114.827ZM274.986 118V107.911C274.986 107.113 274.916 106.296 274.777 105.46C274.65 104.611 274.397 103.826 274.017 103.104C273.65 102.382 273.124 101.799 272.44 101.356C271.769 100.913 270.888 100.691 269.799 100.691C269.09 100.691 268.418 100.811 267.785 101.052C267.152 101.28 266.594 101.654 266.113 102.173C265.644 102.692 265.271 103.376 264.992 104.225C264.726 105.074 264.593 106.106 264.593 107.322L262.123 106.391C262.123 104.529 262.471 102.889 263.168 101.47C263.865 100.039 264.865 98.924 266.17 98.126C267.475 97.328 269.052 96.929 270.901 96.929C272.32 96.929 273.51 97.157 274.473 97.613C275.436 98.069 276.215 98.6707 276.81 99.418C277.418 100.153 277.88 100.957 278.197 101.831C278.514 102.705 278.729 103.56 278.843 104.396C278.957 105.232 279.014 105.967 279.014 106.6V118H274.986ZM260.565 118V97.48H264.118V103.408H264.593V118H260.565ZM289.853 112.927V105.897H282.823V102.705H289.853V95.713H293.045V102.705H300.056V105.897H293.045V112.927H289.853Z" fill="#4A1049"/>
<path d="M177.956 143.24C176.809 143.24 175.841 142.987 175.052 142.48C174.263 141.968 173.665 141.261 173.26 140.36C172.855 139.459 172.652 138.419 172.652 137.24C172.652 136.061 172.855 135.021 173.26 134.12C173.665 133.219 174.263 132.515 175.052 132.008C175.841 131.496 176.809 131.24 177.956 131.24C179.295 131.24 180.388 131.584 181.236 132.272C182.084 132.955 182.665 133.872 182.98 135.024L181.78 135.336C181.535 134.424 181.095 133.701 180.46 133.168C179.825 132.635 178.991 132.368 177.956 132.368C177.055 132.368 176.305 132.573 175.708 132.984C175.111 133.395 174.66 133.968 174.356 134.704C174.057 135.435 173.903 136.28 173.892 137.24C173.887 138.2 174.033 139.045 174.332 139.776C174.636 140.507 175.089 141.08 175.692 141.496C176.3 141.907 177.055 142.112 177.956 142.112C178.991 142.112 179.825 141.845 180.46 141.312C181.095 140.773 181.535 140.051 181.78 139.144L182.98 139.456C182.665 140.608 182.084 141.528 181.236 142.216C180.388 142.899 179.295 143.24 177.956 143.24ZM188.049 143.216C187.532 143.216 187.078 143.136 186.689 142.976C186.305 142.816 185.977 142.6 185.705 142.328C185.438 142.056 185.222 141.747 185.057 141.4C184.892 141.048 184.772 140.677 184.697 140.288C184.622 139.893 184.585 139.501 184.585 139.112V134.36H185.769V138.768C185.769 139.243 185.814 139.683 185.905 140.088C185.996 140.493 186.14 140.848 186.337 141.152C186.54 141.451 186.798 141.683 187.113 141.848C187.433 142.013 187.82 142.096 188.273 142.096C188.689 142.096 189.054 142.024 189.369 141.88C189.689 141.736 189.956 141.531 190.169 141.264C190.388 140.992 190.553 140.664 190.665 140.28C190.777 139.891 190.833 139.453 190.833 138.968L191.665 139.152C191.665 140.037 191.51 140.781 191.201 141.384C190.892 141.987 190.465 142.443 189.921 142.752C189.377 143.061 188.753 143.216 188.049 143.216ZM190.953 143V140.872H190.833V134.36H192.009V143H190.953ZM197.469 143.232C196.456 143.232 195.621 143.013 194.965 142.576C194.314 142.139 193.914 141.531 193.765 140.752L194.965 140.552C195.093 141.043 195.384 141.435 195.837 141.728C196.296 142.016 196.861 142.16 197.533 142.16C198.189 142.16 198.706 142.024 199.085 141.752C199.464 141.475 199.653 141.099 199.653 140.624C199.653 140.357 199.592 140.141 199.469 139.976C199.352 139.805 199.109 139.648 198.741 139.504C198.373 139.36 197.824 139.189 197.093 138.992C196.309 138.779 195.696 138.565 195.253 138.352C194.81 138.139 194.496 137.893 194.309 137.616C194.122 137.333 194.029 136.989 194.029 136.584C194.029 136.093 194.168 135.664 194.445 135.296C194.722 134.923 195.106 134.635 195.597 134.432C196.088 134.224 196.658 134.12 197.309 134.12C197.96 134.12 198.541 134.227 199.053 134.44C199.57 134.648 199.986 134.941 200.301 135.32C200.616 135.699 200.802 136.139 200.861 136.64L199.661 136.856C199.581 136.349 199.328 135.949 198.901 135.656C198.48 135.357 197.944 135.203 197.293 135.192C196.68 135.176 196.181 135.293 195.797 135.544C195.413 135.789 195.221 136.117 195.221 136.528C195.221 136.757 195.29 136.955 195.429 137.12C195.568 137.28 195.818 137.432 196.181 137.576C196.549 137.72 197.072 137.877 197.749 138.048C198.544 138.251 199.168 138.464 199.621 138.688C200.074 138.912 200.397 139.176 200.589 139.48C200.781 139.784 200.877 140.16 200.877 140.608C200.877 141.424 200.573 142.067 199.965 142.536C199.362 143 198.53 143.232 197.469 143.232ZM207.355 143C206.87 143.101 206.39 143.141 205.915 143.12C205.446 143.099 205.025 142.997 204.651 142.816C204.283 142.635 204.003 142.352 203.811 141.968C203.657 141.648 203.571 141.325 203.555 141C203.545 140.669 203.539 140.293 203.539 139.872V131.96H204.707V139.824C204.707 140.187 204.71 140.491 204.715 140.736C204.726 140.976 204.782 141.189 204.883 141.376C205.075 141.733 205.379 141.947 205.795 142.016C206.217 142.085 206.737 142.069 207.355 141.968V143ZM201.691 135.368V134.36H207.355V135.368H201.691ZM212.353 143.24C211.494 143.24 210.761 143.045 210.153 142.656C209.545 142.267 209.078 141.728 208.753 141.04C208.428 140.352 208.265 139.563 208.265 138.672C208.265 137.765 208.43 136.971 208.761 136.288C209.092 135.605 209.561 135.075 210.169 134.696C210.782 134.312 211.51 134.12 212.353 134.12C213.217 134.12 213.953 134.315 214.561 134.704C215.174 135.088 215.641 135.624 215.961 136.312C216.286 136.995 216.449 137.781 216.449 138.672C216.449 139.579 216.286 140.376 215.961 141.064C215.636 141.747 215.166 142.28 214.553 142.664C213.94 143.048 213.206 143.24 212.353 143.24ZM212.353 142.112C213.313 142.112 214.028 141.795 214.497 141.16C214.966 140.52 215.201 139.691 215.201 138.672C215.201 137.627 214.964 136.795 214.489 136.176C214.02 135.557 213.308 135.248 212.353 135.248C211.708 135.248 211.174 135.395 210.753 135.688C210.337 135.976 210.025 136.379 209.817 136.896C209.614 137.408 209.513 138 209.513 138.672C209.513 139.712 209.753 140.547 210.233 141.176C210.713 141.8 211.42 142.112 212.353 142.112ZM228.518 143L228.526 137.328C228.526 136.661 228.339 136.139 227.966 135.76C227.598 135.376 227.128 135.184 226.558 135.184C226.232 135.184 225.915 135.259 225.606 135.408C225.296 135.557 225.04 135.797 224.838 136.128C224.64 136.459 224.542 136.891 224.542 137.424L223.846 137.224C223.83 136.605 223.95 136.064 224.206 135.6C224.467 135.136 224.824 134.776 225.278 134.52C225.736 134.259 226.254 134.128 226.83 134.128C227.699 134.128 228.395 134.397 228.918 134.936C229.44 135.469 229.702 136.192 229.702 137.104L229.694 143H228.518ZM218.206 143V134.36H219.262V136.488H219.39V143H218.206ZM223.374 143L223.382 137.408C223.382 136.72 223.198 136.179 222.83 135.784C222.467 135.384 221.987 135.184 221.39 135.184C220.792 135.184 220.31 135.389 219.942 135.8C219.574 136.205 219.39 136.747 219.39 137.424L218.686 137.04C218.686 136.485 218.816 135.989 219.078 135.552C219.339 135.109 219.696 134.763 220.15 134.512C220.603 134.256 221.118 134.128 221.694 134.128C222.243 134.128 222.731 134.245 223.158 134.48C223.59 134.715 223.928 135.056 224.174 135.504C224.419 135.952 224.542 136.496 224.542 137.136L224.534 143H223.374ZM235.385 143.24C234.543 143.24 233.812 143.053 233.193 142.68C232.58 142.307 232.103 141.781 231.761 141.104C231.42 140.427 231.249 139.632 231.249 138.72C231.249 137.776 231.417 136.96 231.753 136.272C232.089 135.584 232.561 135.053 233.169 134.68C233.783 134.307 234.505 134.12 235.337 134.12C236.191 134.12 236.919 134.317 237.521 134.712C238.124 135.101 238.58 135.661 238.889 136.392C239.199 137.123 239.34 137.995 239.313 139.008H238.113V138.592C238.092 137.472 237.849 136.627 237.385 136.056C236.927 135.485 236.255 135.2 235.369 135.2C234.441 135.2 233.729 135.501 233.233 136.104C232.743 136.707 232.497 137.565 232.497 138.68C232.497 139.768 232.743 140.613 233.233 141.216C233.729 141.813 234.431 142.112 235.337 142.112C235.956 142.112 236.495 141.971 236.953 141.688C237.417 141.4 237.783 140.987 238.049 140.448L239.145 140.872C238.804 141.624 238.3 142.208 237.633 142.624C236.972 143.035 236.223 143.24 235.385 143.24ZM232.081 139.008V138.024H238.681V139.008H232.081ZM241.089 143V134.36H242.145V136.44L241.937 136.168C242.033 135.912 242.158 135.677 242.313 135.464C242.467 135.245 242.635 135.067 242.817 134.928C243.041 134.731 243.302 134.581 243.601 134.48C243.899 134.373 244.201 134.312 244.505 134.296C244.809 134.275 245.086 134.296 245.337 134.36V135.464C245.022 135.384 244.678 135.365 244.305 135.408C243.931 135.451 243.587 135.6 243.273 135.856C242.985 136.08 242.769 136.349 242.625 136.664C242.481 136.973 242.385 137.304 242.337 137.656C242.289 138.003 242.265 138.347 242.265 138.688V143H241.089ZM249.766 143.232C248.753 143.232 247.918 143.013 247.262 142.576C246.611 142.139 246.211 141.531 246.062 140.752L247.262 140.552C247.39 141.043 247.681 141.435 248.134 141.728C248.593 142.016 249.158 142.16 249.83 142.16C250.486 142.16 251.003 142.024 251.382 141.752C251.761 141.475 251.95 141.099 251.95 140.624C251.95 140.357 251.889 140.141 251.766 139.976C251.649 139.805 251.406 139.648 251.038 139.504C250.67 139.36 250.121 139.189 249.39 138.992C248.606 138.779 247.993 138.565 247.55 138.352C247.107 138.139 246.793 137.893 246.606 137.616C246.419 137.333 246.326 136.989 246.326 136.584C246.326 136.093 246.465 135.664 246.742 135.296C247.019 134.923 247.403 134.635 247.894 134.432C248.385 134.224 248.955 134.12 249.606 134.12C250.257 134.12 250.838 134.227 251.35 134.44C251.867 134.648 252.283 134.941 252.598 135.32C252.913 135.699 253.099 136.139 253.158 136.64L251.958 136.856C251.878 136.349 251.625 135.949 251.198 135.656C250.777 135.357 250.241 135.203 249.59 135.192C248.977 135.176 248.478 135.293 248.094 135.544C247.71 135.789 247.518 136.117 247.518 136.528C247.518 136.757 247.587 136.955 247.726 137.12C247.865 137.28 248.115 137.432 248.478 137.576C248.846 137.72 249.369 137.877 250.046 138.048C250.841 138.251 251.465 138.464 251.918 138.688C252.371 138.912 252.694 139.176 252.886 139.48C253.078 139.784 253.174 140.16 253.174 140.608C253.174 141.424 252.87 142.067 252.262 142.536C251.659 143 250.827 143.232 249.766 143.232Z" fill="#4A1049"/>
<rect y="126" width="210" height="210" rx="105" fill="url(#paint3_radial_1_3)"/>
<path d="M85.4405 205.62C87.2938 205.62 88.9671 206.067 90.4605 206.96C91.9538 207.84 93.1405 209.053 94.0205 210.6C94.9005 212.147 95.3405 213.913 95.3405 215.9V225.06C95.3405 227.167 94.9005 229.013 94.0205 230.6C93.1538 232.173 91.9405 233.4 90.3805 234.28C88.8338 235.16 87.0471 235.6 85.0205 235.6C83.5005 235.6 82.0738 235.313 80.7405 234.74C79.4071 234.167 78.2471 233.313 77.2605 232.18L80.3405 229.32C80.8871 230.027 81.5738 230.593 82.4005 231.02C83.2271 231.447 84.1005 231.66 85.0205 231.66C86.2071 231.66 87.2538 231.373 88.1605 230.8C89.0805 230.227 89.7938 229.48 90.3005 228.56C90.8071 227.64 91.0605 226.653 91.0605 225.6V220.32L91.9005 221.24C91.0738 222.32 90.0471 223.173 88.8205 223.8C87.5938 224.427 86.2805 224.74 84.8805 224.74C83.0805 224.74 81.4805 224.327 80.0805 223.5C78.6805 222.673 77.5738 221.547 76.7605 220.12C75.9471 218.693 75.5405 217.08 75.5405 215.28C75.5405 213.48 75.9938 211.853 76.9005 210.4C77.8071 208.947 79.0071 207.787 80.5005 206.92C81.9938 206.053 83.6405 205.62 85.4405 205.62ZM85.4405 209.66C84.4005 209.66 83.4471 209.913 82.5805 210.42C81.7271 210.913 81.0471 211.587 80.5405 212.44C80.0338 213.293 79.7805 214.24 79.7805 215.28C79.7805 216.32 80.0338 217.273 80.5405 218.14C81.0471 218.993 81.7271 219.673 82.5805 220.18C83.4338 220.687 84.3805 220.94 85.4205 220.94C86.4605 220.94 87.4071 220.687 88.2605 220.18C89.1138 219.673 89.7938 218.993 90.3005 218.14C90.8071 217.273 91.0605 216.32 91.0605 215.28C91.0605 214.253 90.8071 213.313 90.3005 212.46C89.8071 211.607 89.1338 210.927 88.2805 210.42C87.4271 209.913 86.4805 209.66 85.4405 209.66ZM105.144 235V210.8L99.7242 214.1V209.44L105.144 206.2H109.404V235H105.144ZM124.739 235.6C123.259 235.6 121.879 235.3 120.599 234.7C119.333 234.087 118.246 233.247 117.339 232.18C116.433 231.1 115.786 229.86 115.399 228.46L119.419 227.38C119.646 228.233 120.033 228.973 120.579 229.6C121.139 230.227 121.793 230.713 122.539 231.06C123.286 231.393 124.059 231.56 124.859 231.56C125.913 231.56 126.866 231.307 127.719 230.8C128.586 230.293 129.266 229.613 129.759 228.76C130.266 227.907 130.519 226.967 130.519 225.94C130.519 224.887 130.259 223.933 129.739 223.08C129.233 222.227 128.546 221.553 127.679 221.06C126.826 220.553 125.886 220.3 124.859 220.3C123.686 220.3 122.693 220.533 121.879 221C121.066 221.467 120.433 222.007 119.979 222.62L116.339 221.34L117.219 206.2H132.759V210.14H119.359L121.059 208.56L120.359 219.9L119.539 218.84C120.299 218.08 121.206 217.5 122.259 217.1C123.313 216.7 124.359 216.5 125.399 216.5C127.186 216.5 128.779 216.913 130.179 217.74C131.593 218.567 132.706 219.693 133.519 221.12C134.333 222.533 134.739 224.14 134.739 225.94C134.739 227.727 134.279 229.353 133.359 230.82C132.439 232.273 131.219 233.433 129.699 234.3C128.179 235.167 126.526 235.6 124.739 235.6Z" fill="#4A1049"/>
<path d="M71.2606 261V249.48H75.7086C76.354 249.48 76.9166 249.613 77.3966 249.88C77.8766 250.147 78.25 250.507 78.5166 250.96C78.7833 251.408 78.9166 251.904 78.9166 252.448C78.9166 253.067 78.7513 253.619 78.4206 254.104C78.09 254.584 77.6473 254.917 77.0926 255.104L77.0766 254.712C77.8233 254.925 78.41 255.299 78.8366 255.832C79.2633 256.365 79.4766 257.011 79.4766 257.768C79.4766 258.435 79.3353 259.011 79.0526 259.496C78.77 259.976 78.3726 260.347 77.8606 260.608C77.3486 260.869 76.754 261 76.0766 261H71.2606ZM72.4446 259.872H75.7886C76.258 259.872 76.6793 259.789 77.0526 259.624C77.426 259.453 77.7193 259.213 77.9326 258.904C78.1513 258.595 78.2606 258.221 78.2606 257.784C78.2606 257.357 78.162 256.973 77.9646 256.632C77.7673 256.291 77.498 256.019 77.1566 255.816C76.8206 255.608 76.4366 255.504 76.0046 255.504H72.4446V259.872ZM72.4446 254.392H75.7006C76.0686 254.392 76.4046 254.309 76.7086 254.144C77.0126 253.973 77.2526 253.741 77.4286 253.448C77.61 253.155 77.7006 252.816 77.7006 252.432C77.7006 251.888 77.5113 251.445 77.1326 251.104C76.7593 250.763 76.282 250.592 75.7006 250.592H72.4446V254.392ZM81.0731 261V252.36H82.1291V254.44L81.9211 254.168C82.0171 253.912 82.1425 253.677 82.2971 253.464C82.4518 253.245 82.6198 253.067 82.8011 252.928C83.0251 252.731 83.2865 252.581 83.5851 252.48C83.8838 252.373 84.1851 252.312 84.4891 252.296C84.7931 252.275 85.0705 252.296 85.3211 252.36V253.464C85.0065 253.384 84.6625 253.365 84.2891 253.408C83.9158 253.451 83.5718 253.6 83.2571 253.856C82.9691 254.08 82.7531 254.349 82.6091 254.664C82.4651 254.973 82.3691 255.304 82.3211 255.656C82.2731 256.003 82.2491 256.347 82.2491 256.688V261H81.0731ZM88.9826 261.24C88.332 261.24 87.7853 261.123 87.3426 260.888C86.9053 260.653 86.5773 260.341 86.3586 259.952C86.14 259.563 86.0306 259.139 86.0306 258.68C86.0306 258.211 86.124 257.811 86.3106 257.48C86.5026 257.144 86.7613 256.869 87.0866 256.656C87.4173 256.443 87.7986 256.28 88.2306 256.168C88.668 256.061 89.1506 255.968 89.6786 255.888C90.212 255.803 90.732 255.731 91.2386 255.672C91.7506 255.608 92.1986 255.547 92.5826 255.488L92.1666 255.744C92.1826 254.891 92.0173 254.259 91.6706 253.848C91.324 253.437 90.7213 253.232 89.8626 253.232C89.2706 253.232 88.7693 253.365 88.3586 253.632C87.9533 253.899 87.668 254.32 87.5026 254.896L86.3586 254.56C86.556 253.787 86.9533 253.187 87.5506 252.76C88.148 252.333 88.924 252.12 89.8786 252.12C90.668 252.12 91.3373 252.269 91.8866 252.568C92.4413 252.861 92.8333 253.288 93.0626 253.848C93.1693 254.099 93.2386 254.379 93.2706 254.688C93.3026 254.997 93.3186 255.312 93.3186 255.632V261H92.2706V258.832L92.5746 258.96C92.2813 259.701 91.8253 260.267 91.2066 260.656C90.588 261.045 89.8466 261.24 88.9826 261.24ZM89.1186 260.224C89.668 260.224 90.148 260.125 90.5586 259.928C90.9693 259.731 91.3 259.461 91.5506 259.12C91.8013 258.773 91.964 258.384 92.0386 257.952C92.1026 257.675 92.1373 257.371 92.1426 257.04C92.148 256.704 92.1506 256.453 92.1506 256.288L92.5986 256.52C92.1986 256.573 91.764 256.627 91.2946 256.68C90.8306 256.733 90.372 256.795 89.9186 256.864C89.4706 256.933 89.0653 257.016 88.7026 257.112C88.4573 257.181 88.22 257.28 87.9906 257.408C87.7613 257.531 87.572 257.696 87.4226 257.904C87.2786 258.112 87.2066 258.371 87.2066 258.68C87.2066 258.931 87.268 259.173 87.3906 259.408C87.5186 259.643 87.7213 259.837 87.9986 259.992C88.2813 260.147 88.6546 260.224 89.1186 260.224ZM101.641 261V256.592C101.641 256.112 101.596 255.672 101.505 255.272C101.415 254.867 101.268 254.515 101.065 254.216C100.868 253.912 100.609 253.677 100.289 253.512C99.9746 253.347 99.5906 253.264 99.1373 253.264C98.7213 253.264 98.3533 253.336 98.0333 253.48C97.7186 253.624 97.4519 253.832 97.2333 254.104C97.0199 254.371 96.8573 254.696 96.7453 255.08C96.6333 255.464 96.5773 255.901 96.5773 256.392L95.7453 256.208C95.7453 255.323 95.8999 254.579 96.2093 253.976C96.5186 253.373 96.9453 252.917 97.4893 252.608C98.0333 252.299 98.6573 252.144 99.3613 252.144C99.8786 252.144 100.329 252.224 100.713 252.384C101.103 252.544 101.431 252.76 101.697 253.032C101.969 253.304 102.188 253.616 102.353 253.968C102.519 254.315 102.639 254.685 102.713 255.08C102.788 255.469 102.825 255.859 102.825 256.248V261H101.641ZM95.3933 261V252.36H96.4573V254.488H96.5773V261H95.3933ZM108.438 261.24C107.569 261.24 106.833 261.045 106.23 260.656C105.628 260.267 105.169 259.731 104.854 259.048C104.545 258.36 104.385 257.571 104.374 256.68C104.385 255.773 104.55 254.979 104.87 254.296C105.19 253.608 105.652 253.075 106.254 252.696C106.857 252.312 107.588 252.12 108.446 252.12C109.321 252.12 110.081 252.333 110.726 252.76C111.377 253.187 111.822 253.771 112.062 254.512L110.91 254.88C110.708 254.363 110.385 253.963 109.942 253.68C109.505 253.392 109.004 253.248 108.438 253.248C107.804 253.248 107.278 253.395 106.862 253.688C106.446 253.976 106.137 254.379 105.934 254.896C105.732 255.413 105.628 256.008 105.622 256.68C105.633 257.715 105.873 258.547 106.342 259.176C106.812 259.8 107.51 260.112 108.438 260.112C109.025 260.112 109.524 259.979 109.934 259.712C110.35 259.44 110.665 259.045 110.878 258.528L112.062 258.88C111.742 259.648 111.273 260.235 110.654 260.64C110.036 261.04 109.297 261.24 108.438 261.24ZM119.954 261V256.592C119.954 256.112 119.908 255.672 119.818 255.272C119.727 254.867 119.58 254.515 119.378 254.216C119.18 253.912 118.922 253.677 118.602 253.512C118.287 253.347 117.903 253.264 117.45 253.264C117.034 253.264 116.666 253.336 116.346 253.48C116.031 253.624 115.764 253.832 115.546 254.104C115.332 254.371 115.17 254.696 115.058 255.08C114.946 255.464 114.89 255.901 114.89 256.392L114.058 256.208C114.058 255.323 114.212 254.579 114.522 253.976C114.831 253.373 115.258 252.917 115.802 252.608C116.346 252.299 116.97 252.144 117.674 252.144C118.191 252.144 118.642 252.224 119.026 252.384C119.415 252.544 119.743 252.76 120.01 253.032C120.282 253.304 120.5 253.616 120.666 253.968C120.831 254.315 120.951 254.685 121.026 255.08C121.1 255.469 121.138 255.859 121.138 256.248V261H119.954ZM113.706 261V249.48H114.77V255.984H114.89V261H113.706ZM126.87 261.24C126.027 261.24 125.296 261.053 124.678 260.68C124.064 260.307 123.587 259.781 123.246 259.104C122.904 258.427 122.734 257.632 122.734 256.72C122.734 255.776 122.902 254.96 123.238 254.272C123.574 253.584 124.046 253.053 124.654 252.68C125.267 252.307 125.99 252.12 126.822 252.12C127.675 252.12 128.403 252.317 129.006 252.712C129.608 253.101 130.064 253.661 130.374 254.392C130.683 255.123 130.824 255.995 130.798 257.008H129.598V256.592C129.576 255.472 129.334 254.627 128.87 254.056C128.411 253.485 127.739 253.2 126.854 253.2C125.926 253.2 125.214 253.501 124.718 254.104C124.227 254.707 123.982 255.565 123.982 256.68C123.982 257.768 124.227 258.613 124.718 259.216C125.214 259.813 125.915 260.112 126.822 260.112C127.44 260.112 127.979 259.971 128.438 259.688C128.902 259.4 129.267 258.987 129.534 258.448L130.63 258.872C130.288 259.624 129.784 260.208 129.118 260.624C128.456 261.035 127.707 261.24 126.87 261.24ZM123.566 257.008V256.024H130.166V257.008H123.566ZM135.797 261.232C134.784 261.232 133.949 261.013 133.293 260.576C132.642 260.139 132.242 259.531 132.093 258.752L133.293 258.552C133.421 259.043 133.712 259.435 134.165 259.728C134.624 260.016 135.189 260.16 135.861 260.16C136.517 260.16 137.034 260.024 137.413 259.752C137.792 259.475 137.981 259.099 137.981 258.624C137.981 258.357 137.92 258.141 137.797 257.976C137.68 257.805 137.437 257.648 137.069 257.504C136.701 257.36 136.152 257.189 135.421 256.992C134.637 256.779 134.024 256.565 133.581 256.352C133.138 256.139 132.824 255.893 132.637 255.616C132.45 255.333 132.357 254.989 132.357 254.584C132.357 254.093 132.496 253.664 132.773 253.296C133.05 252.923 133.434 252.635 133.925 252.432C134.416 252.224 134.986 252.12 135.637 252.12C136.288 252.12 136.869 252.227 137.381 252.44C137.898 252.648 138.314 252.941 138.629 253.32C138.944 253.699 139.13 254.139 139.189 254.64L137.989 254.856C137.909 254.349 137.656 253.949 137.229 253.656C136.808 253.357 136.272 253.203 135.621 253.192C135.008 253.176 134.509 253.293 134.125 253.544C133.741 253.789 133.549 254.117 133.549 254.528C133.549 254.757 133.618 254.955 133.757 255.12C133.896 255.28 134.146 255.432 134.509 255.576C134.877 255.72 135.4 255.877 136.077 256.048C136.872 256.251 137.496 256.464 137.949 256.688C138.402 256.912 138.725 257.176 138.917 257.48C139.109 257.784 139.205 258.16 139.205 258.608C139.205 259.424 138.901 260.067 138.293 260.536C137.69 261 136.858 261.232 135.797 261.232Z" fill="#4A1049"/>
<defs>
<filter id="filter0_d_1_3" x="273" y="0" width="242" height="242" filterUnits="userSpaceOnUse" color-interpolation-filters="sRGB">
<feFlood flood-opacity="0" result="BackgroundImageFix"/>
<feColorMatrix in="SourceAlpha" type="matrix" values="0 0 0 0 0 0 0 0 0 0 0 0 0 0 0 0 0 0 127 0" result="hardAlpha"/>
<feOffset dy="2"/>
<feGaussianBlur stdDeviation="8"/>
<feComposite in2="hardAlpha" operator="out"/>
<feColorMatrix type="matrix" values="0 0 0 0 0 0 0 0 0 0 0 0 0 0 0 0 0 0 0.1 0"/>
<feBlend mode="normal" in2="BackgroundImageFix" result="effect1_dropShadow_1_3"/>
<feBlend mode="normal" in="SourceGraphic" in2="effect1_dropShadow_1_3" result="shape"/>
</filter>
<radialGradient id="paint0_radial_1_3" cx="0" cy="0" r="1" gradientUnits="userSpaceOnUse" gradientTransform="translate(394 119) rotate(90) scale(105)">
<stop stop-color="#F2E8F5"/>
<stop offset="1" stop-color="#DBC3E3"/>
</radialGradient>
<radialGradient id="paint1_radial_1_3" cx="0" cy="0" r="1" gradientUnits="userSpaceOnUse" gradientTransform="translate(298 266) rotate(90) scale(105)">
<stop stop-color="#F9EDFD"/>
<stop offset="1" stop-color="#D6BCDF"/>
</radialGradient>
<radialGradient id="paint2_radial_1_3" cx="0" cy="0" r="1" gradientUnits="userSpaceOnUse" gradientTransform="translate(209 115) rotate(90) scale(105)">
<stop stop-color="#E4D0EB"/>
<stop offset="1" stop-color="#CCABD7"/>
</radialGradient>
<radialGradient id="paint3_radial_1_3" cx="0" cy="0" r="1" gradientUnits="userSpaceOnUse" gradientTransform="translate(105 231) rotate(90) scale(105)">
<stop stop-color="#F7F3F9"/>
<stop offset="1" stop-color="#E2CFE8"/>
</radialGradient>
</defs>
</svg>
